<?xml version="1.0" encoding="UTF-8"?>
<svg version="1.1" xmlns="http://www.w3.org/2000/svg" width="5000" height="2639">
<path d="M0 0 C1650 0 3300 0 5000 0 C5000 870.87 5000 1741.74 5000 2639 C3350 2639 1700 2639 0 2639 C0 1768.13 0 897.26 0 0 Z " fill="#ED2839" transform="translate(0,0)"/>
<path d="M0 0 C554.4 0 1108.8 0 1680 0 C1680 870.87 1680 1741.74 1680 2639 C1125.6 2639 571.2 2639 0 2639 C0 1768.13 0 897.26 0 0 Z " fill="#000000" transform="translate(0,0)"/>
<path d="M0 0 C541.2 0 1082.4 0 1640 0 C1640 870.87 1640 1741.74 1640 2639 C1098.8 2639 557.6 2639 0 2639 C0 1768.13 0 897.26 0 0 Z " fill="#FAE043" transform="translate(1680,0)"/>
</svg>
