<?xml version="1.0" encoding="UTF-8"?>
<svg version="1.1" xmlns="http://www.w3.org/2000/svg" width="5000" height="2638">
<path d="M0 0 C1650 0 3300 0 5000 0 C5000 870.54 5000 1741.08 5000 2638 C3350 2638 1700 2638 0 2638 C0 1767.46 0 896.92 0 0 Z " fill="#DE2810" transform="translate(0,0)"/>
<path d="M0 0 C2.39446353 2.13618432 3.49076665 3.77289975 4.40234375 6.83984375 C4.76900146 8.03649658 4.76900146 8.03649658 5.14306641 9.25732422 C5.40522949 10.14178223 5.66739258 11.02624023 5.9375 11.9375 C6.54533827 13.91884187 7.1562505 15.89924222 7.76953125 17.87890625 C8.1145166 18.99281738 8.45950195 20.10672852 8.81494141 21.25439453 C11.39988126 29.4245938 14.16220671 37.53760987 16.89328003 45.65988159 C19.7508545 54.16213889 22.5473633 62.67552101 25.19923401 71.24432373 C27.56257077 78.85921043 30.12836422 86.40433097 32.69335938 93.953125 C34.5943995 99.60004071 36.3845719 105.25147078 37.99609375 110.98828125 C39.94637775 117.92539774 42.18576502 124.73949687 44.5 131.5625 C45.39047864 134.20751083 46.27765597 136.85362203 47.1640625 139.5 C47.50922409 140.52988792 47.50922409 140.52988792 47.86135864 141.58058167 C50.58518639 149.72410257 53.23154715 157.89260804 55.875 166.0625 C56.25047974 167.22217285 56.25047974 167.22217285 56.63354492 168.40527344 C58.9283655 175.49314807 61.21927222 182.58228561 63.50878906 189.671875 C65.00437781 194.30256311 66.50151535 198.9327482 68 203.5625 C68.36748856 204.6981842 68.36748856 204.6981842 68.74240112 205.85681152 C73.04907853 219.15692286 77.44863771 232.4251042 81.90429688 245.67602539 C84.24853234 252.6571475 86.5578487 259.64856755 88.78515625 266.66796875 C88.99385849 267.3165535 89.20256073 267.96513824 89.41758728 268.63337708 C90.62149406 272.46607934 91.33154183 275.98925095 92 280 C189.68 280 287.36 280 388 280 C382.38095238 285.61904762 382.38095238 285.61904762 379.4609375 287.62109375 C378.80810791 288.07411865 378.15527832 288.52714355 377.48266602 288.99389648 C376.78713623 289.47028564 376.09160645 289.9466748 375.375 290.4375 C369.03345551 294.84585727 362.76755666 299.33896151 356.5625 303.9375 C350.40291227 308.49804824 344.22120537 313.02384171 338 317.5 C331.71843468 322.02046265 325.47341073 326.58731711 319.25 331.1875 C312.73140208 336.00405241 306.17551521 340.76023076 299.5703125 345.45703125 C288.33484157 353.44845775 277.19855572 361.57422395 266.10888672 369.76635742 C257.04893979 376.45240175 247.90963888 383.02736019 238.77050781 389.60449219 C230.31406964 395.6923875 221.88111091 401.80868741 213.5 408 C205.12051542 414.19011119 196.68892637 420.30474309 188.23388672 426.39111328 C184.48640217 429.09012128 180.74344061 431.79538754 177 434.5 C175.523459 435.56643602 174.04689642 436.63284216 172.5703125 437.69921875 C171.83071289 438.23337402 171.09111328 438.7675293 170.32910156 439.31787109 C168.70605469 440.49007161 167.08300781 441.66227214 165.45996094 442.83447266 C164.6043457 443.45241699 163.74873047 444.07036133 162.8671875 444.70703125 C162.031875 445.3103125 161.1965625 445.91359375 160.3359375 446.53515625 C159.52382813 447.12167969 158.71171875 447.70820312 157.875 448.3125 C153.9375 451.15625 153.9375 451.15625 150 454 C151.54553734 462.02290172 154.15079805 469.56081616 156.875 477.25 C159.72980811 485.35697733 162.48731408 493.4641255 164.97705078 501.69091797 C167.06664158 508.45042004 169.37297984 515.14074427 171.64550781 521.84057617 C174.32229125 529.74196158 176.78420219 537.6610197 179.03515625 545.69360352 C180.49607978 550.70000214 182.2369929 555.59355422 184 560.5 C186.14712494 566.56600674 188.25782141 572.59691518 189.9375 578.8125 C192.09579746 586.7585189 194.89266656 594.48318525 197.65209961 602.23754883 C200.01525624 608.93460697 202.0763502 615.6607568 203.99023438 622.49902344 C205.65350276 628.26577117 207.57813562 633.94023294 209.5 639.625 C209.92825171 640.90019022 210.35613828 642.17550312 210.78369141 643.45092773 C211.69849948 646.17884801 212.61478741 648.90626427 213.53222656 651.63330078 C215.8938753 658.65586758 218.24288548 665.68265586 220.58911133 672.71038818 C221.35420945 675.00027529 222.12134773 677.28947131 222.88867188 679.57861328 C225.35881115 686.96336919 227.74360786 694.36224198 230.00830078 701.81323242 C232.19664583 708.84535156 234.61587379 715.80439222 236.99609375 722.7734375 C237.38410156 723.92328125 237.77210938 725.073125 238.171875 726.2578125 C238.5234668 727.2905127 238.87505859 728.32321289 239.23730469 729.38720703 C240 732 240 732 240 735 C235.77181539 733.55979869 232.79229021 731.46678342 229.3125 728.6875 C224.06741414 724.55923272 218.73299794 720.58253167 213.3125 716.6875 C212.55098633 716.13980957 211.78947266 715.59211914 211.00488281 715.02783203 C209.44575054 713.90759321 207.88617787 712.7879671 206.32617188 711.66894531 C202.56762718 708.97232362 198.81412481 706.2687384 195.0625 703.5625 C193.95757202 702.76561768 193.95757202 702.76561768 192.83032227 701.95263672 C187.27774511 697.94059975 181.75937704 693.88359323 176.25 689.8125 C169.73131921 684.99605784 163.1755172 680.23977065 156.5703125 675.54296875 C145.33484157 667.55154225 134.19855572 659.42577605 123.10888672 651.23364258 C115.52397852 645.63614485 107.88444692 640.11615144 100.23388672 634.60888672 C95.73476831 631.36853805 91.24175881 628.11972298 86.74755859 624.87255859 C83.012055 622.17401978 79.2751852 619.47742047 75.53515625 616.78515625 C67.02079319 610.65243321 58.54783798 604.46767211 50.10791016 598.23291016 C40.97394835 591.49228941 31.76086315 584.86222775 22.54492188 578.234375 C20.89033805 577.04421306 19.23611756 575.85354583 17.58227539 574.66235352 C16.03022464 573.54447824 14.47737646 572.42770895 12.92358398 571.31225586 C9.20253214 568.6315806 5.54937353 565.90783647 2 563 C-2.25922824 564.44565046 -5.24974103 566.57297922 -8.75 569.375 C-13.76794293 573.33081409 -18.8856141 577.09293415 -24.125 580.75 C-30.29223696 585.06336372 -36.38842384 589.45988543 -42.4375 593.9375 C-52.30887218 601.24297745 -62.26189326 608.43113913 -72.22949219 615.60449219 C-80.68593036 621.6923875 -89.11888909 627.80868741 -97.5 634 C-105.87948458 640.19011119 -114.31107363 646.30474309 -122.76611328 652.39111328 C-126.51359769 655.09012118 -130.25661201 657.79531494 -134 660.5 C-138.48610379 663.74131453 -142.97304831 666.98141954 -147.46484375 670.21484375 C-155.17462973 675.76804624 -162.85757631 681.35437205 -170.5 687 C-180.35407821 694.27942622 -190.28574334 701.44830324 -200.22949219 708.60449219 C-202.46610126 710.21465496 -204.70195145 711.82586518 -206.9375 713.4375 C-207.66662598 713.96255127 -208.39575195 714.48760254 -209.14697266 715.02856445 C-213.20259141 717.95584483 -217.23627378 720.91002227 -221.25 723.89453125 C-222.11633057 724.537854 -222.98266113 725.18117676 -223.87524414 725.84399414 C-225.55154009 727.09095388 -227.22531528 728.34131126 -228.89624023 729.59545898 C-229.65106689 730.15692627 -230.40589355 730.71839355 -231.18359375 731.296875 C-232.18217407 732.04469238 -232.18217407 732.04469238 -233.20092773 732.80761719 C-235 734 -235 734 -238 735 C-237.16438765 730.15344836 -235.73091888 725.51260781 -234.3125 720.8125 C-234.08111328 720.03197266 -233.84972656 719.25144531 -233.61132812 718.44726562 C-230.94336919 709.56567909 -227.95540066 700.78894408 -225 692 C-224.50722237 690.5336169 -224.01446474 689.06722709 -223.52172852 687.60083008 C-223.28184708 686.88700165 -223.04196564 686.17317322 -222.79481506 685.43771362 C-217.54318752 669.80637657 -212.31196018 654.1834235 -207.58642578 638.3828125 C-205.87362243 632.68439191 -203.97132425 627.10140843 -201.90625 621.52124023 C-200.69480422 618.15092757 -199.71596976 614.76187708 -198.75 611.3125 C-196.44828255 603.27714655 -193.82675828 595.36414334 -191.15771484 587.44433594 C-188.65543645 580.00652106 -186.24522859 572.54335603 -183.875 565.0625 C-181.41462502 557.30368071 -178.83886549 549.60864239 -176.07324219 541.95385742 C-174.16895154 536.62508221 -172.57951648 531.23691832 -171.03442383 525.79492188 C-169.24827631 519.61475306 -167.14558782 513.56350971 -165 507.5 C-162.41011076 500.17525429 -159.98839267 492.85267792 -157.87207031 485.37792969 C-155.91327446 478.52379579 -153.63145847 471.78352435 -151.32202148 465.04052734 C-151.03528564 464.19699707 -150.7485498 463.3534668 -150.453125 462.484375 C-150.19692383 461.73897461 -149.94072266 460.99357422 -149.67675781 460.22558594 C-148.95035522 457.83673816 -148.45240194 455.45419952 -148 453 C-149.05380859 452.64421875 -149.05380859 452.64421875 -150.12890625 452.28125 C-153.52096557 450.76751469 -156.03244648 448.81525072 -158.9375 446.5 C-163.44839917 442.95264381 -168.00380272 439.50365497 -172.6875 436.1875 C-173.26145508 435.78047852 -173.83541016 435.37345703 -174.42675781 434.95410156 C-175.63983382 434.09404059 -176.85305419 433.2341832 -178.06640625 432.37451172 C-188.75745564 424.77468747 -199.34092177 417.02725455 -209.89111328 409.23364258 C-217.47602148 403.63614485 -225.11555308 398.11615144 -232.76611328 392.60888672 C-237.26523169 389.36853805 -241.75824119 386.11972298 -246.25244141 382.87255859 C-249.987945 380.17401978 -253.7248148 377.47742047 -257.46484375 374.78515625 C-265.97920681 368.65243321 -274.45216202 362.46767211 -282.89208984 356.23291016 C-291.21502749 350.09080366 -299.60432215 344.04209317 -308 338 C-318.00550398 330.79936792 -327.97688478 323.55749214 -337.89208984 316.23291016 C-343.26074442 312.27098595 -348.65133092 308.34114133 -354.0625 304.4375 C-354.79170654 303.91091797 -355.52091309 303.38433594 -356.2722168 302.84179688 C-360.15703135 300.03955122 -364.05053003 297.25008946 -367.953125 294.47265625 C-368.76644287 293.89136963 -369.57976074 293.31008301 -370.41772461 292.71118164 C-371.96781649 291.6035668 -373.52055137 290.49963759 -375.07641602 289.40014648 C-376.13107056 288.64519897 -376.13107056 288.64519897 -377.20703125 287.875 C-377.8203833 287.43929688 -378.43373535 287.00359375 -379.06567383 286.5546875 C-381.54481971 284.5621088 -383.75094084 282.24905916 -386 280 C-288.65 279.67 -191.3 279.34 -91 279 C-88.36 271.08 -85.72 263.16 -83 255 C-81.40091797 250.23755859 -81.40091797 250.23755859 -79.76953125 245.37890625 C-78.65668082 242.06072914 -78.65668082 242.06072914 -77.54418945 238.74243164 C-77.05207192 237.27625965 -76.55888938 235.81044473 -76.06469727 234.3449707 C-73.16626511 225.74587993 -70.41761397 217.13023758 -67.90101624 208.41159058 C-65.73599278 200.97306065 -63.2524057 193.64888874 -60.7746582 186.30999756 C-59.46630024 182.4085302 -58.19349169 178.49559999 -56.921875 174.58203125 C-56.53660645 173.39670807 -56.53660645 173.39670807 -56.14355469 172.18743896 C-55.61617809 170.56374961 -55.0890819 168.93996915 -54.56225586 167.31610107 C-53.72519495 164.73604386 -52.88706593 162.15633522 -52.04882812 159.57666016 C-49.38982046 151.38974529 -46.73908178 143.20028256 -44.109375 135.00390625 C-43.88505798 134.30548111 -43.66074097 133.60705597 -43.42962646 132.88746643 C-42.39518798 129.66652324 -41.36285343 126.44496561 -40.33496094 123.22192383 C-38.44362249 117.32576308 -36.47251269 111.47335536 -34.37109375 105.6484375 C-32.59122013 100.71305213 -30.98083163 95.79988404 -29.5625 90.75 C-27.91731428 84.97334459 -26.12810095 79.26335559 -24.203125 73.57421875 C-22.13840007 67.42551139 -20.09983744 61.26955658 -18.10546875 55.09765625 C-17.86806473 54.3631575 -17.63066071 53.62865875 -17.38606262 52.87190247 C-16.90094715 51.3700959 -16.41601914 49.86822877 -15.93127441 48.36630249 C-10.71587772 32.21188299 -5.40861095 16.09082527 0 0 Z " fill="#FEDD00" transform="translate(660,250)"/>
<path d="M0 0 C0.66 0 1.32 0 2 0 C2.18884766 0.55719727 2.37769531 1.11439453 2.57226562 1.68847656 C7.91750821 17.40499195 13.51053649 33.02578834 19.1875 48.625 C19.69917725 50.03199158 19.69917725 50.03199158 20.22119141 51.46740723 C21.22307429 54.22090173 22.2262951 56.97390263 23.23046875 59.7265625 C23.5501059 60.60280273 23.86974304 61.47904297 24.19906616 62.38183594 C25.71896172 66.53726755 27.25345173 70.68619421 28.82275391 74.82324219 C29.10476151 75.56738373 29.3867691 76.31152527 29.67732239 77.07821655 C30.20322362 78.4612714 30.73208803 79.84320455 31.26445007 81.2237854 C33 85.78180068 33 85.78180068 33 88 C38.9367763 87.8799052 44.87344529 87.75558471 50.81005859 87.62768555 C52.82110312 87.58491441 54.8321707 87.54321173 56.84326172 87.50268555 C66.70815605 87.30322063 76.55706337 87.07743787 86.40625 86.46875 C94.81961924 85.951006 103.19822802 85.88358656 111.625 85.9375 C113.03645669 85.94254092 114.44791519 85.9470991 115.859375 85.95117188 C119.23963223 85.9627481 122.6197902 85.97904695 126 86 C123.74240367 88.94124983 121.64704641 91.51652661 118.63671875 93.69140625 C118.00515869 94.15474365 117.37359863 94.61808105 116.72290039 95.09545898 C115.7153772 95.82164429 115.7153772 95.82164429 114.6875 96.5625 C109.21936468 100.58027426 103.8367356 104.66815029 98.5625 108.9375 C93.27177046 113.21167015 87.9159519 117.38566513 82.5 121.5 C75.60334393 126.73991306 68.81607003 132.10184239 62.07421875 137.5390625 C59.7438276 139.40455986 57.40379591 141.23128103 55 143 C55.55917781 147.81615667 56.5524405 152.00879172 58.2578125 156.54296875 C58.71502686 157.77144531 59.17224121 158.99992188 59.64331055 160.265625 C60.00602554 161.2256543 60.00602554 161.2256543 60.37606812 162.20507812 C61.64844094 165.5730476 62.89832534 168.94938283 64.15234375 172.32421875 C64.40097672 172.99117767 64.64960968 173.6581366 64.90577698 174.3453064 C66.90190643 179.70711243 68.81903495 185.09260637 70.6875 190.5 C73.149628 197.60514637 75.67788391 204.68388926 78.25 211.75 C78.57959717 212.65556641 78.90919434 213.56113281 79.2487793 214.49414062 C79.72118042 215.78868164 79.72118042 215.78868164 80.203125 217.109375 C80.65268555 218.3478418 80.65268555 218.3478418 81.11132812 219.61132812 C81.69722368 221.18616387 82.30492495 222.75308188 82.93554688 224.31054688 C85.10096849 229.69709452 85.10096849 229.69709452 84 233 C83.2678125 232.46375 82.535625 231.9275 81.78125 231.375 C73.34929284 225.25254343 64.72549571 219.44466664 56.04321289 213.68432617 C47.14228665 207.77444119 38.28349414 201.80420654 29.4375 195.8125 C28.76719757 195.35902191 28.09689514 194.90554382 27.40628052 194.43832397 C25.47719761 193.13307105 23.54899648 191.82652654 21.62109375 190.51953125 C21.05530609 190.13677032 20.48951843 189.7540094 19.90658569 189.35964966 C17.61789702 187.80585518 15.33708418 186.25284535 13.12385559 184.5927124 C11.45291565 183.34401904 9.72930981 182.16651745 8 181 C3.6942369 181.6842742 0.90840989 184.55955118 -2.3125 187.375 C-7.00939881 191.40726429 -11.83654568 195.19329947 -16.8125 198.875 C-22.83417119 203.33986291 -28.7285752 207.93220237 -34.56347656 212.63793945 C-38.52571375 215.83020627 -42.52097047 218.97126607 -46.5625 222.0625 C-53.42501987 227.31181558 -60.21584055 232.64997321 -67 238 C-68.17222246 234.48333261 -67.76161762 233.42789124 -66.70703125 229.94921875 C-66.25904175 228.44657471 -66.25904175 228.44657471 -65.80200195 226.91357422 C-65.47546631 225.84896973 -65.14893066 224.78436523 -64.8125 223.6875 C-64.15600867 221.49616603 -63.49975728 219.30476017 -62.84375 217.11328125 C-62.5240625 216.0557666 -62.204375 214.99825195 -61.875 213.90869141 C-60.82133576 210.40608097 -59.80989253 206.89402605 -58.8125 203.375 C-58.50828125 202.30636719 -58.2040625 201.23773437 -57.890625 200.13671875 C-57.59671875 199.10160156 -57.3028125 198.06648437 -57 197 C-52.15759409 179.95234968 -47.10681086 162.97005535 -42 146 C-42.7110791 145.74452393 -43.4221582 145.48904785 -44.15478516 145.22583008 C-47.23565407 143.89847099 -49.75808347 142.28511341 -52.5234375 140.38671875 C-53.61188965 139.64341309 -54.7003418 138.90010742 -55.82177734 138.13427734 C-56.68860138 137.53737091 -56.68860138 137.53737091 -57.57293701 136.92840576 C-59.40589932 135.66622264 -61.24268118 134.40978742 -63.08056641 133.15478516 C-65.69696183 131.36764831 -68.31187965 129.5783799 -70.92578125 127.78759766 C-77.068208 123.58195715 -83.2269714 119.40041225 -89.38848877 115.22280884 C-91.31534289 113.91547618 -93.24052455 112.60571084 -95.16552734 111.2956543 C-96.38877843 110.46500948 -97.61224493 109.63468179 -98.8359375 108.8046875 C-99.42353851 108.40556656 -100.01113953 108.00644562 -100.61654663 107.5952301 C-103.72214954 105.49732721 -106.85144458 103.44887212 -110.02441406 101.45410156 C-111.00216293 100.83766281 -111.00216293 100.83766281 -111.99966431 100.20877075 C-113.25124419 99.42361791 -114.50679231 98.64474633 -115.76669312 97.87301636 C-117.21169438 96.96730287 -118.61140695 95.99002773 -120 95 C-120 94.34 -120 93.68 -120 93 C-111.45269452 92.7345206 -102.90526748 92.47351492 -94.35766792 92.21769714 C-90.38551429 92.09868658 -86.41341261 91.97832796 -82.44140625 91.85449219 C-63.28743208 91.25840664 -44.16595365 90.83228218 -25 91 C-24.86352051 89.78103027 -24.72704102 88.56206055 -24.58642578 87.30615234 C-24.18637674 84.11863653 -23.60420856 81.16714149 -22.6171875 78.1015625 C-22.34036133 77.22266357 -22.06353516 76.34376465 -21.77832031 75.43823242 C-21.48022461 74.50986572 -21.18212891 73.58149902 -20.875 72.625 C-17.79634395 62.79791059 -15.02452872 52.9144384 -12.39794922 42.95751953 C-10.94831791 37.47240476 -9.4386046 32.01938687 -7.78564453 26.59204102 C-6.25204977 21.53232208 -4.78977268 16.45139005 -3.3125 11.375 C-2.99216797 10.27542969 -2.67183594 9.17585937 -2.34179688 8.04296875 C-1.560843 5.36208231 -0.78025068 2.68109117 0 0 Z " fill="#FEDC00" transform="translate(1583,794)"/>
<path d="M0 0 C0.33 0 0.66 0 1 0 C1.33161308 13.7947837 0.34553522 27.54723073 -0.4375 41.3125 C-0.70954985 46.14178926 -0.97908279 50.97121077 -1.24609375 55.80078125 C-1.31122162 56.97698029 -1.37634949 58.15317932 -1.44345093 59.36502075 C-2.08866226 71.23835957 -2.56722716 83.11722664 -3 95 C-2.37456299 95.18039825 -1.74912598 95.36079651 -1.10473633 95.54666138 C4.46968452 97.1822293 9.90392822 99.00098617 15.3125 101.1171875 C16.07261887 101.4109729 16.83273773 101.7047583 17.6158905 102.00744629 C19.23930455 102.6353802 20.86206958 103.2649943 22.48422241 103.8961792 C25.04063696 104.89081074 27.59879024 105.88084213 30.1574707 106.86962891 C33.68575327 108.23333114 37.21346578 109.59849079 40.74072266 110.96484375 C48.14148555 113.83025025 55.54817328 116.6801326 62.95874023 119.52008057 C65.1522994 120.36149757 67.34472042 121.20583248 69.53710938 122.05029297 C70.87233258 122.56233944 72.20761562 123.07422995 73.54296875 123.5859375 C74.69821045 124.0298584 75.85345215 124.4737793 77.04370117 124.93115234 C79.36460491 125.77027337 81.59386181 126.47380676 84 127 C84 127.66 84 128.32 84 129 C82.89096313 129.28665527 82.89096313 129.28665527 81.75952148 129.57910156 C73.50483037 131.71357012 65.25159061 133.85357549 57 136 C56.20384277 136.20705566 55.40768555 136.41411133 54.58740234 136.62744141 C47.93343522 138.36347274 41.31226665 140.19264364 34.70825195 142.10864258 C25.82138267 144.68277589 16.90830408 147.109077 7.9375 149.375 C6.90826416 149.63780762 5.87902832 149.90061523 4.81860352 150.17138672 C3.37505493 150.53127686 3.37505493 150.53127686 1.90234375 150.8984375 C1.05148193 151.11161621 0.20062012 151.32479492 -0.67602539 151.54443359 C-3 152 -3 152 -7 152 C-6.98096619 152.96302032 -6.98096619 152.96302032 -6.96154785 153.94549561 C-6.85831449 163.77099404 -7.48207614 173.52757435 -8.09375 183.328125 C-8.20616792 185.17183537 -8.3182637 187.01556541 -8.43005371 188.85931396 C-8.72276997 193.67295023 -9.01981403 198.48630967 -9.31781006 203.29962158 C-9.62207812 208.22692945 -9.92218354 213.15449074 -10.22265625 218.08203125 C-10.81106761 227.72160435 -11.40405874 237.36088969 -12 247 C-14.07242304 244.96894207 -15.75073156 243.03525734 -17.3125 240.5859375 C-17.74240234 239.91626953 -18.17230469 239.24660156 -18.61523438 238.55664062 C-19.07220703 237.83669922 -19.52917969 237.11675781 -20 236.375 C-20.98948384 234.83066541 -21.97906999 233.28639638 -22.96875 231.7421875 C-23.47277344 230.95295898 -23.97679687 230.16373047 -24.49609375 229.35058594 C-26.81619404 225.72429932 -29.15846252 222.11246544 -31.5 218.5 C-32.42201017 217.07560832 -33.34388495 215.65112899 -34.265625 214.2265625 C-34.9472168 213.1732373 -34.9472168 213.1732373 -35.64257812 212.09863281 C-36.9655826 210.05321078 -38.2876228 208.00716892 -39.609375 205.9609375 C-40.04338623 205.2894165 -40.47739746 204.61789551 -40.92456055 203.92602539 C-41.80672118 202.56094314 -42.6883961 201.19554688 -43.56958008 199.82983398 C-46.36707019 195.50091842 -49.18969559 191.18943168 -52.02734375 186.88671875 C-52.71602539 185.8395166 -53.40470703 184.79231445 -54.11425781 183.71337891 C-55.48092291 181.63634408 -56.85128368 179.56173558 -58.22558594 177.48974609 C-58.84594727 176.54566895 -59.46630859 175.6015918 -60.10546875 174.62890625 C-60.66387451 173.78400635 -61.22228027 172.93910645 -61.79760742 172.06860352 C-63 170 -63 170 -63 168 C-86.27767994 174.05529117 -109.51414275 180.24332082 -132.6875 186.6875 C-133.42145996 186.89060791 -134.15541992 187.09371582 -134.91162109 187.30297852 C-138.09868227 188.18592492 -141.27930053 189.08183126 -144.453125 190.01171875 C-145.43796875 190.29660156 -146.4228125 190.58148437 -147.4375 190.875 C-148.26121094 191.11992188 -149.08492187 191.36484375 -149.93359375 191.6171875 C-152 192 -152 192 -155 191 C-154.63350342 190.55833496 -154.26700684 190.11666992 -153.8894043 189.66162109 C-147.61277953 182.08972654 -141.34915726 174.51538181 -135.3125 166.75 C-131.3735568 161.68554172 -127.29720942 156.76630665 -123.12426758 151.89355469 C-119.33399951 147.44677368 -115.7207896 142.87769949 -112.15136719 138.25244141 C-109.79084679 135.21201625 -107.3767256 132.25260073 -104.828125 129.3671875 C-104.31314453 128.78066406 -103.79816406 128.19414063 -103.26757812 127.58984375 C-102.27718834 126.47071604 -101.276263 125.36079926 -100.26367188 124.26171875 C-97.75960795 121.54266468 -97.75960795 121.54266468 -96.9375 118.0703125 C-98.54522476 114.93761352 -100.35102052 111.96091602 -102.25 109 C-102.68965088 108.30575928 -103.12930176 107.61151855 -103.58227539 106.89624023 C-108.79109442 98.69906592 -114.10461039 90.56867684 -119.41259766 82.43554688 C-122.27350133 78.04607055 -125.11748985 73.64566949 -127.9609375 69.24487305 C-130.29735349 65.62933782 -132.6386312 62.01710853 -134.98828125 58.41015625 C-135.48183105 57.65114014 -135.97538086 56.89212402 -136.48388672 56.11010742 C-137.42016724 54.67046212 -138.3578818 53.23174792 -139.29736328 51.79418945 C-142.01812143 47.60615429 -144.56052352 43.35822944 -147 39 C-140.15679941 41.22193842 -133.44134135 43.68910478 -126.73046875 46.28125 C-125.6632106 46.69175598 -124.59595245 47.10226196 -123.49635315 47.52520752 C-120.05924984 48.84802337 -116.62333103 50.17388348 -113.1875 51.5 C-110.83433566 52.40664241 -108.4811455 53.31321779 -106.12792969 54.21972656 C-90.05928677 60.41396904 -74.00741448 66.64898888 -58 73 C-57.59599976 72.12516968 -57.59599976 72.12516968 -57.18383789 71.23266602 C-55.99330955 68.9873821 -54.68505702 67.22510867 -53.05859375 65.27734375 C-52.47972412 64.57988037 -51.90085449 63.88241699 -51.30444336 63.16381836 C-50.68835205 62.4291333 -50.07226074 61.69444824 -49.4375 60.9375 C-48.15613626 59.39592786 -46.87488607 57.85426134 -45.59375 56.3125 C-44.97242188 55.56742188 -44.35109375 54.82234375 -43.7109375 54.0546875 C-41.60598732 51.52682495 -39.51884748 48.9848208 -37.4375 46.4375 C-36.39916016 45.16712891 -36.39916016 45.16712891 -35.33984375 43.87109375 C-31.82151161 39.55394162 -28.31046061 35.23088084 -24.80102539 30.90649414 C-21.67186143 27.05193932 -18.52998639 23.20847809 -15.375 19.375 C-12.89086077 16.35062975 -10.44523182 13.30135168 -8.0390625 10.21484375 C-7.53455566 9.56789551 -7.03004883 8.92094727 -6.51025391 8.25439453 C-5.51736689 6.97773379 -4.52736757 5.69882103 -3.54052734 4.41748047 C-2.38284328 2.92723902 -1.19438637 1.46099047 0 0 Z " fill="#FEDD00" transform="translate(1367,1065)"/>
<path d="M0 0 C6.54247316 5.45206096 12.60341764 11.20031829 18.15820312 17.66259766 C21.82438853 21.85983661 25.69225437 25.80431334 29.65625 29.71875 C30.36221313 30.42092651 31.06817627 31.12310303 31.79553223 31.84655762 C34.02791358 34.06684603 36.26352111 36.28383955 38.5 38.5 C41.45090378 41.42409479 44.39833203 44.35163057 47.34375 47.28125 C48.00749634 47.936698 48.67124268 48.592146 49.35510254 49.26745605 C53.22552094 53.11782175 56.89579157 57.07937432 60.44494629 61.22839355 C61.90376035 62.89035827 63.41803524 64.45578245 65 66 C68.84995053 64.51352229 72.55400534 62.81854519 76.26953125 61.0234375 C76.86819504 60.73449615 77.46685883 60.44555481 78.08366394 60.14785767 C79.35230795 59.53508697 80.62055501 58.92149386 81.88842773 58.30712891 C83.76772456 57.39669175 85.64838812 56.48913266 87.52929688 55.58203125 C96.02057401 51.48020296 104.46458468 47.28832785 112.8921814 43.05743408 C116.59278157 41.2009457 120.29660951 39.35091401 124 37.5 C125.49741006 36.75133053 126.99480593 36.00263268 128.4921875 35.25390625 C135.328125 31.8359375 142.1640625 28.41796875 149 25 C149.33 25.66 149.66 26.32 150 27 C149.20239258 28.98925781 149.20239258 28.98925781 147.89453125 31.453125 C147.17112549 32.82839355 147.17112549 32.82839355 146.43310547 34.23144531 C145.89830566 35.22756836 145.36350586 36.22369141 144.8125 37.25 C143.98709717 38.80992676 143.98709717 38.80992676 143.14501953 40.40136719 C140.06833501 46.19659434 136.93607105 51.96009835 133.77294922 57.70849609 C128.21121107 67.81986425 122.7743016 77.99535406 117.44000244 88.22839355 C116.60792555 89.82053484 115.77164566 91.41048693 114.93109131 92.99816895 C113.74824969 95.23503075 112.58130975 97.47951107 111.41796875 99.7265625 C111.05717728 100.40165863 110.6963858 101.07675476 110.32466125 101.77230835 C109.05565698 104.25478148 108.00161661 106.32302338 107.99487305 109.14697266 C109.47633209 111.87815413 111.44093366 113.7550331 113.6640625 115.921875 C114.13435883 116.38555481 114.60465515 116.84923462 115.08920288 117.32696533 C116.5941856 118.80859836 118.10891332 120.2797384 119.625 121.75 C121.11798788 123.20756763 122.60869091 124.66736183 124.0965271 126.13018799 C125.46057595 127.46979483 126.83093175 128.80297087 128.20166016 130.13574219 C130.35190221 132.28204381 132.34954263 134.52678448 134.33374023 136.82714844 C138.07916887 141.15007896 142.06322575 145.19048124 146.12109375 149.21875 C146.86585464 149.96209595 147.61061554 150.70544189 148.37794495 151.47131348 C150.72876745 153.81659301 153.08306431 156.15834836 155.4375 158.5 C157.04385199 160.10132961 158.64997397 161.70288998 160.25585938 163.3046875 C164.16791985 167.20579473 168.08282952 171.1040242 172 175 C171.67 175.66 171.34 176.32 171 177 C168.72883796 176.60599022 166.45803363 176.21010854 164.1875 175.8125 C163.06589478 175.61611938 163.06589478 175.61611938 161.92163086 175.41577148 C157.19976519 174.58266748 152.48469674 173.71932739 147.7734375 172.828125 C135.09973317 170.43491979 122.4280883 168.20649106 109.66430664 166.34399414 C105.24947088 165.6927873 100.90518286 165.01570321 96.5703125 163.94921875 C90.79923771 162.58518277 84.90376257 162.3467434 79 162 C78.65855957 162.66306152 78.31711914 163.32612305 77.96533203 164.00927734 C66.48380248 186.2761365 66.48380248 186.2761365 60.6875 196.5625 C57.33780457 202.50940382 54.19785209 208.51767729 51.19604492 214.64672852 C46.44652028 224.26179489 41.18145995 233.6131467 36 243 C34.30251386 239.9653411 33.56516614 237.30741739 33.03515625 233.87890625 C32.87660156 232.87255127 32.71804688 231.86619629 32.5546875 230.8293457 C32.39226562 229.75128662 32.22984375 228.67322754 32.0625 227.5625 C31.88847656 226.4386792 31.71445313 225.3148584 31.53515625 224.15698242 C31.01459097 220.77259043 30.50496171 217.38675223 30 214 C29.8644873 213.09443359 29.72897461 212.18886719 29.58935547 211.25585938 C28.31304716 202.66282665 27.13670922 194.05733482 25.99609375 185.4453125 C25.9086087 184.78510605 25.82112366 184.1248996 25.73098755 183.44468689 C25.2989753 180.18141172 24.86990343 176.91781784 24.4453125 173.65356445 C23.44947678 166.07296747 22.31397172 158.53210621 21 151 C19.99755249 150.84180786 19.99755249 150.84180786 18.97485352 150.68041992 C-11.19389681 145.91066725 -11.19389681 145.91066725 -25.828125 143.06640625 C-27.55207341 142.73171969 -29.27603195 142.39708537 -31 142.0625 C-32.28910278 141.81137451 -32.28910278 141.81137451 -33.60424805 141.55517578 C-41.97727319 139.95077294 -50.39214664 138.63577836 -58.82617188 137.39477539 C-60.33727539 137.16455688 -60.33727539 137.16455688 -61.87890625 136.9296875 C-62.7716626 136.79804199 -63.66441895 136.66639648 -64.58422852 136.53076172 C-67.0056258 135.99876397 -68.81538144 135.14231085 -71 134 C-70.02980927 133.5153125 -69.05961853 133.030625 -68.06002808 132.53125 C-60.42996422 128.71840692 -52.80299333 124.89951571 -45.18131828 121.06993103 C-39.44687547 118.18863616 -33.71057373 115.31106001 -27.97352791 112.43495178 C-24.13804206 110.51193561 -20.30334317 108.58737962 -16.47021484 106.65966797 C-12.71879728 104.77313351 -8.96546592 102.89045997 -5.21075058 101.01049805 C-3.78823887 100.2973953 -2.36643175 99.58288523 -0.94534683 98.86694336 C1.02402759 97.87504501 2.9958095 96.88810404 4.96826172 95.90234375 C6.08804413 95.34023193 7.20782654 94.77812012 8.36154175 94.19897461 C11 93 11 93 13 93 C12.79636841 91.80963135 12.79636841 91.80963135 12.58862305 90.59521484 C7.93745159 63.31017943 7.93745159 63.31017943 6.17138672 49.79833984 C5.39752645 43.88282572 4.56902435 37.97741698 3.70703125 32.07421875 C3.59265717 31.28783524 3.47828308 30.50145172 3.36044312 29.6912384 C2.66659284 24.92043417 2.66659284 24.92043417 1.96484375 20.15078735 C1.63552874 17.92397795 1.31146516 15.6964563 0.98828125 13.46875 C0.79790283 12.17388672 0.60752441 10.87902344 0.41137695 9.54492188 C0.03720532 6.32060611 -0.07903509 3.24137582 0 0 Z " fill="#FEDC00" transform="translate(1530,411)"/>
<path d="M0 0 C0.33 0 0.66 0 1 0 C0.55036063 10.61445374 -0.35629488 21.16017781 -1.41015625 31.73046875 C-1.47588207 32.39092319 -1.54160789 33.05137764 -1.60932541 33.73184586 C-2.22890842 39.9514975 -2.85611061 46.17036657 -3.49145508 52.38842773 C-3.84218318 55.82450441 -4.18599581 59.26122036 -4.52584648 62.69838905 C-4.71570988 64.59845276 -4.91313942 66.49775575 -5.1108551 68.39701843 C-5.92394187 76.64188989 -6.14535739 84.71798725 -6 93 C-5.15995926 93.36717636 -4.31991852 93.73435272 -3.454422 94.11265564 C12.73828503 101.19071724 28.92708004 108.27771791 45.11038208 115.3772583 C46.89678981 116.16083807 48.68330732 116.94416759 50.46994019 117.72723389 C59.67290218 121.76114012 68.87198764 125.79825739 78 130 C78 130.33 78 130.66 78 131 C57.67563346 135.60296168 37.35199042 140.19744461 16.96484375 144.515625 C6.96753871 146.63497143 -3.01487852 148.82412554 -13 151 C-13.94264883 159.64527808 -14.87874814 168.29125681 -15.8125 176.9375 C-15.9503894 178.21153687 -16.08827881 179.48557373 -16.23034668 180.79821777 C-18.24087027 199.34930268 -18.24087027 199.34930268 -19.99609375 217.92578125 C-20.06427811 218.70642441 -20.13246246 219.48706757 -20.20271301 220.29136658 C-20.503592 223.77778148 -20.79103231 227.26478152 -21.06176758 230.75366211 C-21.20908325 232.53848999 -21.20908325 232.53848999 -21.359375 234.359375 C-21.47490723 235.86709473 -21.47490723 235.86709473 -21.59277344 237.40527344 C-21.99759581 239.9846812 -22.69314807 241.75721343 -24 244 C-24.38631592 243.32759277 -24.77263184 242.65518555 -25.1706543 241.96240234 C-32.42479474 229.34343251 -39.70955586 216.74604397 -47.13330078 204.22583008 C-51.30461812 197.18777586 -55.44103918 190.12986066 -59.5625 183.0625 C-60.14652588 182.06138184 -60.73055176 181.06026367 -61.33227539 180.02880859 C-64.24412065 175.03184908 -67.14038943 170.02704156 -70 165 C-75.42104745 164.85926163 -80.10494225 165.25255823 -85.42578125 166.46875 C-86.11886383 166.62471649 -86.81194641 166.78068298 -87.52603149 166.94137573 C-89.79008593 167.45293162 -92.05118574 167.97647743 -94.3125 168.5 C-95.90224319 168.86099097 -97.49217175 169.22116647 -99.08227539 169.58056641 C-106.49596884 171.26074956 -113.90153755 172.97617095 -121.30751038 174.69000244 C-123.67050298 175.23645024 -126.03383256 175.78142068 -128.3972168 176.32617188 C-131.34558226 177.0057648 -134.29210133 177.69264581 -137.23754883 178.38476562 C-145.44895943 180.29755816 -153.64365622 181.86314337 -162 183 C-160.30758073 180.0680231 -158.65685409 177.4098187 -156.328125 174.94921875 C-155.83223877 174.41981689 -155.33635254 173.89041504 -154.82543945 173.3449707 C-154.04559692 172.52452271 -154.04559692 172.52452271 -153.25 171.6875 C-152.16460038 170.52936156 -151.07996075 169.3705104 -149.99609375 168.2109375 C-149.21661377 167.37900879 -149.21661377 167.37900879 -148.42138672 166.53027344 C-146.12388464 164.05676897 -143.9156625 161.50958561 -141.70703125 158.95703125 C-139.66366569 156.6144085 -137.58319141 154.30726578 -135.5 152 C-132.22927077 148.37567842 -128.9983078 144.72116822 -125.79296875 141.0390625 C-123.82158957 138.79710187 -121.81837309 136.58614197 -119.8125 134.375 C-116.0134848 130.14949777 -112.23739643 125.90505637 -108.5 121.625 C-107.97124268 121.02993652 -107.44248535 120.43487305 -106.89770508 119.82177734 C-103.42191613 115.88809245 -103.42191613 115.88809245 -102 111 C-102.69893522 108.96872592 -102.69893522 108.96872592 -103.96484375 106.96484375 C-104.42673096 106.16989502 -104.88861816 105.37494629 -105.36450195 104.5559082 C-105.88359131 103.6918335 -106.40268066 102.82775879 -106.9375 101.9375 C-107.47528076 101.0199292 -108.01306152 100.1023584 -108.56713867 99.15698242 C-110.36526313 96.09688206 -112.18166803 93.04813081 -114 90 C-115.27930765 87.84153795 -116.55794157 85.68267646 -117.8359375 83.5234375 C-119.83277728 80.15224255 -121.83076787 76.78175619 -123.83227539 73.41333008 C-128.38657364 65.74502835 -132.90974668 58.05954609 -137.37997437 50.34188843 C-138.35244822 48.66391245 -139.32816383 46.98781657 -140.30395508 45.31176758 C-140.89200928 44.2936499 -141.48006348 43.27553223 -142.0859375 42.2265625 C-142.6020459 41.33533691 -143.1181543 40.44411133 -143.64990234 39.52587891 C-144.96411585 37.06713516 -146.01881708 34.60731056 -147 32 C-139.09520965 34.38735279 -131.67114441 37.70790504 -124.15942383 41.0960083 C-121.8320649 42.14433961 -119.50154438 43.18530962 -117.16992188 44.22412109 C-110.29836814 47.28600993 -103.42974432 50.35417774 -96.57128906 53.4453125 C-92.08722886 55.46557042 -87.59644979 57.47018934 -83.10113525 59.465271 C-81.37015298 60.23703799 -79.64173074 61.0145732 -77.91595459 61.7979126 C-75.50223529 62.89281666 -73.08062006 63.9679937 -70.65625 65.0390625 C-69.93805084 65.37047241 -69.21985168 65.70188232 -68.47988892 66.04333496 C-64.673155 67.75663339 -64.673155 67.75663339 -60.65356445 67.31640625 C-58.40349468 65.52512082 -56.57754585 63.54368493 -54.6875 61.375 C-53.50220703 60.02535156 -53.50220703 60.02535156 -52.29296875 58.6484375 C-51.53628906 57.77445313 -50.77960938 56.90046875 -50 56 C-48.833687 54.66635729 -47.66705181 53.33299624 -46.5 52 C-45.943125 51.360625 -45.38625 50.72125 -44.8125 50.0625 C-42.72788836 47.69035571 -40.61571356 45.34443935 -38.5 43 C-33.65278775 37.62414883 -28.87678307 32.19278763 -24.16796875 26.6953125 C-18.31163907 19.87377293 -12.37297566 13.14669297 -6.25 6.5625 C-5.64148193 5.90564209 -5.03296387 5.24878418 -4.40600586 4.57202148 C-2.95916701 3.02727468 -1.48260271 1.51045508 0 0 Z " fill="#FEDD00" transform="translate(1372,143)"/>
<path d="M0 0 C0.66 0 1.32 0 2 0 C2.25 2.3125 2.25 2.3125 2 5 C0 6.8125 0 6.8125 -2 8 C-1.34 5.36 -0.68 2.72 0 0 Z " fill="#F7B704" transform="translate(1583,794)"/>
</svg>
