<?xml version="1.0" encoding="UTF-8"?>
<svg version="1.1" xmlns="http://www.w3.org/2000/svg" width="5000" height="2639">
<path d="M0 0 C1650 0 3300 0 5000 0 C5000 870.87 5000 1741.74 5000 2639 C3350 2639 1700 2639 0 2639 C0 1768.13 0 897.26 0 0 Z " fill="#000000" transform="translate(0,0)"/>
<path d="M0 0 C1650 0 3300 0 5000 0 C5000 292.71 5000 585.42 5000 887 C3350 887 1700 887 0 887 C0 594.29 0 301.58 0 0 Z " fill="#FDCD00" transform="translate(0,1752)"/>
<path d="M0 0 C1650 0 3300 0 5000 0 C5000 285.45 5000 570.9 5000 865 C3350 865 1700 865 0 865 C0 579.55 0 294.1 0 0 Z " fill="#DE0000" transform="translate(0,887)"/>
</svg>
