<?xml version="1.0" encoding="UTF-8"?>
<svg version="1.1" xmlns="http://www.w3.org/2000/svg" width="5000" height="2638">
<path d="M0 0 C1650 0 3300 0 5000 0 C5000 870.54 5000 1741.08 5000 2638 C3350 2638 1700 2638 0 2638 C0 1767.46 0 896.92 0 0 Z " fill="#FEFEFE" transform="translate(0,0)"/>
<path d="M0 0 C26.4 0 52.8 0 80 0 C80 9.9 80 19.8 80 30 C146.99 30 213.98 30 283 30 C283 20.1 283 10.2 283 0 C290.26 0 297.52 0 305 0 C305 9.9 305 19.8 305 30 C371.66 30 438.32 30 507 30 C507 20.1 507 10.2 507 0 C512.28 0 517.56 0 523 0 C523 9.9 523 19.8 523 30 C589.99 30 656.98 30 726 30 C726 20.1 726 10.2 726 0 C732.93 0 739.86 0 747 0 C747 9.9 747 19.8 747 30 C813.99 30 880.98 30 950 30 C950 20.1 950 10.2 950 0 C954.62 0 959.24 0 964 0 C964 9.9 964 19.8 964 30 C1030.99 30 1097.98 30 1167 30 C1167 20.1 1167 10.2 1167 0 C1173.93 0 1180.86 0 1188 0 C1188 9.9 1188 19.8 1188 30 C1254.99 30 1321.98 30 1391 30 C1391 20.1 1391 10.2 1391 0 C1395.62 0 1400.24 0 1405 0 C1405 9.9 1405 19.8 1405 30 C1471.99 30 1538.98 30 1608 30 C1608 20.1 1608 10.2 1608 0 C1614.93 0 1621.86 0 1629 0 C1629 9.9 1629 19.8 1629 30 C1696.32 30 1763.64 30 1833 30 C1833 20.1 1833 10.2 1833 0 C1837.29 0 1841.58 0 1846 0 C1846 9.9 1846 19.8 1846 30 C1913.32 30 1980.64 30 2050 30 C2050 20.1 2050 10.2 2050 0 C2056.93 0 2063.86 0 2071 0 C2071 9.9 2071 19.8 2071 30 C2137.99 30 2204.98 30 2274 30 C2274 20.1 2274 10.2 2274 0 C2278.62 0 2283.24 0 2288 0 C2288 9.9 2288 19.8 2288 30 C2354.99 30 2421.98 30 2491 30 C2491 20.1 2491 10.2 2491 0 C2497.93 0 2504.86 0 2512 0 C2512 9.9 2512 19.8 2512 30 C2578.99 30 2645.98 30 2715 30 C2715 20.1 2715 10.2 2715 0 C2719.62 0 2724.24 0 2729 0 C2729 9.9 2729 19.8 2729 30 C2795.99 30 2862.98 30 2932 30 C2932 20.1 2932 10.2 2932 0 C2938.93 0 2945.86 0 2953 0 C2953 9.9 2953 19.8 2953 30 C3019.99 30 3086.98 30 3156 30 C3156 20.1 3156 10.2 3156 0 C3160.62 0 3165.24 0 3170 0 C3170 9.9 3170 19.8 3170 30 C3236.99 30 3303.98 30 3373 30 C3373 20.1 3373 10.2 3373 0 C3379.93 0 3386.86 0 3394 0 C3394 9.9 3394 19.8 3394 30 C3460.99 30 3527.98 30 3597 30 C3597 20.1 3597 10.2 3597 0 C3601.62 0 3606.24 0 3611 0 C3611 9.9 3611 19.8 3611 30 C3677.99 30 3744.98 30 3814 30 C3814 20.1 3814 10.2 3814 0 C3820.93 0 3827.86 0 3835 0 C3835 9.9 3835 19.8 3835 30 C3902.32 30 3969.64 30 4039 30 C4039 20.1 4039 10.2 4039 0 C4043.29 0 4047.58 0 4052 0 C4052 9.9 4052 19.8 4052 30 C4119.32 30 4186.64 30 4256 30 C4256 20.1 4256 10.2 4256 0 C4262.93 0 4269.86 0 4277 0 C4277 9.9 4277 19.8 4277 30 C4343.99 30 4410.98 30 4480 30 C4480 20.1 4480 10.2 4480 0 C4484.62 0 4489.24 0 4494 0 C4494 9.9 4494 19.8 4494 30 C4560.99 30 4627.98 30 4697 30 C4697 20.1 4697 10.2 4697 0 C4703.93 0 4710.86 0 4718 0 C4718 9.9 4718 19.8 4718 30 C4784.99 30 4851.98 30 4921 30 C4921 20.1 4921 10.2 4921 0 C4947.07 0 4973.14 0 5000 0 C5000 293.04 5000 586.08 5000 888 C3350 888 1700 888 0 888 C0 594.96 0 301.92 0 0 Z " fill="#D80A16" transform="translate(0,1750)"/>
<path d="M0 0 C1650 0 3300 0 5000 0 C5000 286.11 5000 572.22 5000 867 C4973.93 867 4947.86 867 4921 867 C4921 864.36 4921 861.72 4921 859 C4854.01 859 4787.02 859 4718 859 C4718 861.64 4718 864.28 4718 867 C4711.07 867 4704.14 867 4697 867 C4697 864.36 4697 861.72 4697 859 C4629.68 859 4562.36 859 4493 859 C4493 861.64 4493 864.28 4493 867 C4488.71 867 4484.42 867 4480 867 C4480 864.36 4480 861.72 4480 859 C4412.68 859 4345.36 859 4276 859 C4276 861.64 4276 864.28 4276 867 C4269.4 867 4262.8 867 4256 867 C4256 864.36 4256 861.72 4256 859 C4189.01 859 4122.02 859 4053 859 C4053 861.64 4053 864.28 4053 867 C4048.38 867 4043.76 867 4039 867 C4039 864.36 4039 861.72 4039 859 C3971.68 859 3904.36 859 3835 859 C3835 861.64 3835 864.28 3835 867 C3828.07 867 3821.14 867 3814 867 C3814 864.36 3814 861.72 3814 859 C3747.01 859 3680.02 859 3611 859 C3611 861.64 3611 864.28 3611 867 C3606.71 867 3602.42 867 3598 867 C3598 864.36 3598 861.72 3598 859 C3530.68 859 3463.36 859 3394 859 C3394 861.64 3394 864.28 3394 867 C3387.07 867 3380.14 867 3373 867 C3373 864.36 3373 861.72 3373 859 C3306.01 859 3239.02 859 3170 859 C3170 861.64 3170 864.28 3170 867 C3165.38 867 3160.76 867 3156 867 C3156 864.36 3156 861.72 3156 859 C3089.01 859 3022.02 859 2953 859 C2953 861.64 2953 864.28 2953 867 C2946.07 867 2939.14 867 2932 867 C2932 864.36 2932 861.72 2932 859 C2865.01 859 2798.02 859 2729 859 C2729 861.64 2729 864.28 2729 867 C2724.38 867 2719.76 867 2715 867 C2715 864.36 2715 861.72 2715 859 C2648.01 859 2581.02 859 2512 859 C2512 861.64 2512 864.28 2512 867 C2505.07 867 2498.14 867 2491 867 C2491 864.36 2491 861.72 2491 859 C2423.68 859 2356.36 859 2287 859 C2287 861.64 2287 864.28 2287 867 C2282.71 867 2278.42 867 2274 867 C2274 864.36 2274 861.72 2274 859 C2206.68 859 2139.36 859 2070 859 C2070 861.64 2070 864.28 2070 867 C2063.4 867 2056.8 867 2050 867 C2050 864.36 2050 861.72 2050 859 C1982.68 859 1915.36 859 1846 859 C1846 861.64 1846 864.28 1846 867 C1841.38 867 1836.76 867 1832 867 C1832 864.36 1832 861.72 1832 859 C1765.01 859 1698.02 859 1629 859 C1629 861.64 1629 864.28 1629 867 C1622.07 867 1615.14 867 1608 867 C1608 864.36 1608 861.72 1608 859 C1541.01 859 1474.02 859 1405 859 C1405 861.64 1405 864.28 1405 867 C1400.71 867 1396.42 867 1392 867 C1392 864.36 1392 861.72 1392 859 C1324.68 859 1257.36 859 1188 859 C1188 861.64 1188 864.28 1188 867 C1181.07 867 1174.14 867 1167 867 C1167 864.36 1167 861.72 1167 859 C1100.01 859 1033.02 859 964 859 C964 861.64 964 864.28 964 867 C959.38 867 954.76 867 950 867 C950 864.36 950 861.72 950 859 C883.01 859 816.02 859 747 859 C747 861.64 747 864.28 747 867 C740.07 867 733.14 867 726 867 C726 864.36 726 861.72 726 859 C659.01 859 592.02 859 523 859 C523 861.64 523 864.28 523 867 C517.72 867 512.44 867 507 867 C507 864.36 507 861.72 507 859 C440.34 859 373.68 859 305 859 C305 861.64 305 864.28 305 867 C298.07 867 291.14 867 284 867 C284 864.36 284 861.72 284 859 C216.68 859 149.36 859 80 859 C80 861.64 80 864.28 80 867 C53.6 867 27.2 867 0 867 C0 580.89 0 294.78 0 0 Z " fill="#2C9E46" transform="translate(0,0)"/>
<path d="M0 0 C4.33272482 1.66562171 7.13521123 4.87451236 10.3125 8.125 C10.89717041 8.71611572 11.48184082 9.30723145 12.08422852 9.91625977 C15.50731638 13.40041456 18.8441343 16.91121369 21.86621094 20.75439453 C23.68868241 22.67236851 25.21235455 23.86731682 27.37744141 25.31665039 C32.76854589 29.23575646 37.11333017 33.4119009 38.75454712 40.05343628 C39.81616886 48.98969737 39.35764656 58.00522219 39.02161407 66.97648621 C38.87476739 71.38204666 38.81618986 75.78891046 38.74951172 80.19628906 C38.65402162 86.15038342 38.54899382 92.10389963 38.41156006 98.05718994 C38.03158826 114.52275943 37.87015178 130.98352691 37.79296875 147.453125 C37.77984367 150.11648585 37.76667232 152.77984643 37.75344849 155.44320679 C37.74671772 156.80488392 37.73999437 158.16656109 37.73327827 159.5282383 C37.72991596 160.20942891 37.72655365 160.89061953 37.72308946 161.59245229 C37.71626465 162.98362359 37.70950341 164.37479521 37.70280433 165.76596713 C37.62032929 182.87288217 37.49177144 199.97937716 37.35546875 217.0859375 C37.34911706 217.88705853 37.34276538 218.68817956 37.33622122 219.51357698 C36.66577891 304.00993205 35.82023279 388.50499348 35 473 C36.73161476 471.60166411 38.46058477 470.20005281 40.18847656 468.79711914 C41.15158752 468.01695938 42.11469849 467.23679962 43.10699463 466.43299866 C47.57119751 462.67863314 51.66036962 458.59113613 55.75 454.4375 C56.54792969 453.63892578 57.34585938 452.84035156 58.16796875 452.01757812 C62.9780574 447.17194695 67.57602886 442.19976267 72 437 C72.72445312 436.15695312 73.44890625 435.31390625 74.1953125 434.4453125 C103.269208 399.48601305 124.4444931 358.90457244 139.81591797 316.27050781 C140.88630431 313.31403452 141.98576983 310.37073713 143.09765625 307.4296875 C146.83903741 297.37280106 149.39787009 287.43377959 151.2734375 276.8671875 C152 273 152 273 153 271 C153.62489427 267.58230273 154.03967585 264.13081577 154.5 260.6875 C154.69529297 259.29047852 154.69529297 259.29047852 154.89453125 257.86523438 C156.78589476 243.90926425 157.18641411 230.10182404 157.18530273 216.03735352 C157.1874783 212.96811819 157.20566235 209.89924971 157.22460938 206.83007812 C157.27600957 189.29952587 155.8921357 172.24818044 152.6875 155 C152.4694873 153.80995361 152.25147461 152.61990723 152.02685547 151.39379883 C149.32229212 136.9620077 145.65863124 122.93152497 141.4375 108.875 C141.15664551 107.93873779 140.87579102 107.00247559 140.58642578 106.0378418 C138.95074365 100.71783557 137.09783904 95.55198445 134.98461914 90.40332031 C134.05024763 88.12264757 133.15916049 85.83024264 132.28125 83.52734375 C128.53509865 73.8177159 124.41156239 64.33485317 119.9375 54.9375 C119.45539062 53.9158374 118.97328125 52.8941748 118.4765625 51.84155273 C115.47611635 45.62684832 112.11775413 39.88318042 108.22485352 34.18188477 C107.82065186 33.46186279 107.4164502 32.74184082 107 32 C107.33 31.34 107.66 30.68 108 30 C121.64260818 42.19566489 134.88274176 54.66030953 145.8046875 69.39892578 C146.93045234 70.90684364 148.0892547 72.38993438 149.25 73.87109375 C165.02056837 94.17570052 177.29484565 117.24722331 187 141 C187.44730469 142.06734375 187.89460938 143.1346875 188.35546875 144.234375 C191.70069249 152.50994388 194.1341031 160.96110904 196.37060547 169.58886719 C196.7847305 171.1753291 197.20799777 172.7594374 197.64111328 174.34082031 C220.27568801 257.08829518 199.49989826 350.52022671 158.27050781 424.0859375 C147.61234772 442.35357089 135.26185459 459.23486428 120.9453125 474.80859375 C118.97317676 476.9526996 118.97317676 476.9526996 117.3671875 479.28515625 C116.91601562 479.85105469 116.46484375 480.41695312 116 481 C115.34 481 114.68 481 114 481 C113.73832031 481.59683594 113.47664063 482.19367188 113.20703125 482.80859375 C111.92132852 485.14283074 110.72102904 486.3599093 108.6875 488.0625 C107.96820312 488.66835937 107.24890625 489.27421875 106.5078125 489.8984375 C105.68023438 490.59195312 104.85265625 491.28546875 104 492 C103.06929687 492.81726562 102.13859375 493.63453125 101.1796875 494.4765625 C87.88914496 506.09939754 73.56831027 515.70248874 58 524 C60.72218838 525.81479225 62.62032722 526.63756407 65.69140625 527.5859375 C67.09447021 528.0195459 67.09447021 528.0195459 68.52587891 528.46191406 C69.52796387 528.76323242 70.53004883 529.06455078 71.5625 529.375 C72.59810059 529.68663086 73.63370117 529.99826172 74.70068359 530.31933594 C89.84255929 534.80149905 104.93532021 537.64927287 120.58544922 539.6796875 C122.71856476 539.96266501 124.8452665 540.27107136 126.97265625 540.59375 C139.58575453 542.39751589 152.27797669 542.64175621 165 543 C161.62260429 546.37739571 156.89480519 546.48024278 152.3125 547.375 C151.21921387 547.59124023 150.12592773 547.80748047 148.99951172 548.03027344 C135.09659017 550.6812295 121.05974724 552.41587552 107 554 C106.10627686 554.10675049 105.21255371 554.21350098 104.29174805 554.32348633 C95.40569743 555.27759617 86.48875102 555.1953228 77.5625 555.1875 C76.71917114 555.1882251 75.87584229 555.1889502 75.00695801 555.18969727 C63.92405459 555.18864381 53.01593929 554.91217506 42.015625 553.4375 C40.67736935 553.28906495 39.33880835 553.14336446 38 553 C37.17935059 552.88076172 36.35870117 552.76152344 35.51318359 552.63867188 C31.74765092 552.30194568 29.13064812 552.09686738 26.08789062 554.52734375 C24.24463766 556.76120588 22.68031275 559.05703804 21.125 561.5 C19.93580355 563.23629913 18.74568174 564.9719648 17.5546875 566.70703125 C16.96655273 567.5882666 16.37841797 568.46950195 15.77246094 569.37744141 C13.05100075 573.40415288 10.16151379 577.29715365 7.25 581.1875 C6.74871582 581.87585937 6.24743164 582.56421875 5.73095703 583.2734375 C4.53649202 584.88656811 3.27465525 586.4494546 2 588 C1.34 588 0.68 588 0 588 C-0.53367187 587.030625 -1.06734375 586.06125 -1.6171875 585.0625 C-6.09184793 576.99349014 -10.72087466 569.07291665 -15.72412109 561.31835938 C-16.12324707 560.69380859 -16.52237305 560.06925781 -16.93359375 559.42578125 C-17.4603772 558.61234253 -17.4603772 558.61234253 -17.99780273 557.7824707 C-19.22595448 555.59812579 -20.1088393 553.33920315 -21 551 C-21.74048584 551.08564209 -22.48097168 551.17128418 -23.24389648 551.25952148 C-26.6417406 551.65238643 -30.03962002 552.04494535 -33.4375 552.4375 C-34.60216797 552.57220703 -35.76683594 552.70691406 -36.96679688 552.84570312 C-39.27370866 553.11213519 -41.58092077 553.37597983 -43.88842773 553.63720703 C-45.6738284 553.84537536 -47.45824012 554.06387075 -49.23852539 554.31201172 C-57.29286227 555.39322262 -65.45062421 555.24319079 -73.5625 555.25 C-74.39580841 555.25100708 -75.22911682 555.25201416 -76.087677 555.25305176 C-105.1774291 555.22948018 -135.19826761 553.05845007 -163 544 C-163 543.67 -163 543.34 -163 543 C-161.72253906 542.97421875 -160.44507812 542.9484375 -159.12890625 542.921875 C-124.36038014 541.95034452 -89.91695055 536.44444752 -57 525 C-59.73408269 521.82846407 -63.2321942 519.99569961 -66.8125 517.9375 C-87.94089573 505.49004106 -108.45858633 489.04007315 -124 470 C-124.72960938 469.15824219 -125.45921875 468.31648438 -126.2109375 467.44921875 C-153.25487548 435.92639514 -171.08960122 397.82369495 -185 359 C-185.26296875 358.26910156 -185.5259375 357.53820313 -185.796875 356.78515625 C-192.17698195 338.88541175 -196.03630453 320.5698102 -199.45117188 301.91210938 C-199.95421665 299.24292871 -200.50844197 296.59001039 -201.07421875 293.93359375 C-214.99871905 224.4912998 -196.65324398 146.93971196 -157.9375 88.625 C-149.70099503 76.43211229 -140.75344201 65.01145456 -131 54 C-130.50064941 53.43603516 -130.00129883 52.87207031 -129.48681641 52.29101562 C-122.41800965 44.35847392 -114.95632883 37.03937604 -107 30 C-106.34 30.33 -105.68 30.66 -105 31 C-105.49886719 31.84175781 -105.99773438 32.68351562 -106.51171875 33.55078125 C-116.49968722 50.70181425 -125.73482943 68.66735896 -131.87890625 87.57421875 C-132.80856513 90.41502306 -133.8341564 93.12660565 -135 95.875 C-147.86457054 127.74525293 -155.05744437 164.21488458 -155.203125 198.5703125 C-155.21167511 200.18931961 -155.21167511 200.18931961 -155.22039795 201.84103394 C-155.22978939 204.11845947 -155.23635843 206.39589824 -155.24023438 208.67333984 C-155.24983772 212.0676421 -155.28087587 215.46131066 -155.3125 218.85546875 C-155.72820932 304.60496438 -114.61661586 392.89664043 -54.78076172 453.44873047 C-53.81243623 454.4244135 -52.84385237 455.39984016 -51.875 456.375 C-50.9689502 457.29039551 -50.06290039 458.20579102 -49.12939453 459.14892578 C-43.05015436 465.19957846 -36.73440795 470.69208426 -30 476 C-29.8934042 445.39153439 -29.89341908 414.79237515 -30.4375 384.1875 C-30.45714813 383.03476593 -30.47679626 381.88203186 -30.49703979 380.69436646 C-30.55526767 377.35214648 -30.61836131 374.01005879 -30.68359375 370.66796875 C-30.70031128 369.73856476 -30.71702881 368.80916077 -30.73425293 367.85159302 C-30.85976734 361.90544296 -31.08601507 355.96803062 -31.35410404 350.02694416 C-32.02332731 335.0410216 -32.29155922 320.06100599 -32.5 305.0625 C-32.54027677 302.32282408 -32.58165254 299.58316509 -32.62304688 296.84350586 C-32.73073184 289.67826309 -32.83460014 282.51296912 -32.9375 275.34765625 C-33.11083016 263.27818977 -33.28769984 251.20877521 -33.46883845 239.13942337 C-33.48962624 237.75391334 -33.51036494 236.36840258 -33.53105474 234.98289108 C-33.80814272 216.44554458 -34.15716083 197.91266006 -34.65452576 179.37988281 C-35.16918889 160.15948515 -35.4576339 140.93594987 -35.66699219 121.70996094 C-35.67550516 120.93358654 -35.68401814 120.15721214 -35.69278908 119.35731125 C-35.76192795 113.03397565 -35.76192795 113.03397565 -35.79363632 109.96001434 C-35.88584517 101.10148361 -36.02485971 92.24771839 -36.27983379 83.39228058 C-36.44797211 77.55069311 -36.56779703 71.70885409 -36.67062378 65.86572266 C-36.72290953 63.48401713 -36.79463363 61.10264681 -36.88723755 58.72216797 C-37.64960031 38.79348151 -37.64960031 38.79348151 -32.35290527 32.4140625 C-30.04374675 30.05817532 -27.59293633 28.04321604 -25 26 C-23.7577628 24.77344913 -22.53032981 23.53143853 -21.328125 22.265625 C-20.30416095 21.25830037 -19.27818777 20.25301307 -18.25 19.25 C-14.13405937 15.18745011 -10.18064378 11.0667428 -6.43359375 6.65625 C-4.40393442 4.31135747 -2.22564049 2.15819683 0 0 Z " fill="#D80B17" transform="translate(2499,1075)"/>
<path d="M0 0 C1650 0 3300 0 5000 0 C5000 1.65 5000 3.3 5000 5 C3350 5 1700 5 0 5 C0 3.35 0 1.7 0 0 Z " fill="#FEFAFA" transform="translate(0,2633)"/>
<path d="M0 0 C1650 0 3300 0 5000 0 C5000 1.65 5000 3.3 5000 5 C3350 5 1700 5 0 5 C0 3.35 0 1.7 0 0 Z " fill="#FAFCFB" transform="translate(0,0)"/>
<path d="M0 0 C0.33 0.66 0.66 1.32 1 2 C0.319375 2.495 -0.36125 2.99 -1.0625 3.5 C-4.80684217 6.68667419 -7.81338236 10.26532933 -11 14 C-11.98294724 15.12234579 -12.96744637 16.2433335 -13.953125 17.36328125 C-20.28143389 24.57123747 -26.38766639 31.89523385 -32.2578125 39.48046875 C-34.11876882 41.88336663 -36.00970445 44.25728359 -37.9296875 46.61328125 C-45.39736651 55.78264164 -52.325809 65.23891443 -59 75 C-59.50031738 75.7312207 -60.00063477 76.46244141 -60.51611328 77.21582031 C-77.46232603 102.0876967 -92.30200431 128.00112891 -104.8125 155.375 C-105.37239624 156.58712158 -105.37239624 156.58712158 -105.94360352 157.82373047 C-108.143389 162.70448891 -109.89103605 167.57215675 -111.35058594 172.72363281 C-111.98940843 174.96287375 -112.6975606 177.16735534 -113.4375 179.375 C-113.685 180.12007812 -113.9325 180.86515625 -114.1875 181.6328125 C-114.74641538 183.26119096 -115.33133566 184.88080064 -115.9375 186.4921875 C-122.27535683 203.97080829 -124.23656345 222.66295368 -124.25 241.125 C-124.25067474 241.95857025 -124.25134949 242.7921405 -124.25204468 243.65097046 C-124.19754826 286.54984119 -119.79355098 332.14339882 -105.73779297 372.85449219 C-104.86982819 375.37854066 -104.03192383 377.91199512 -103.19140625 380.4453125 C-99.10389941 392.62373211 -94.51729475 404.40030412 -89 416 C-88.68595215 416.67047363 -88.3719043 417.34094727 -88.04833984 418.03173828 C-81.38176626 432.1969125 -73.73472804 446.26410041 -63.4609375 458.15234375 C-62 460 -62 460 -61 463 C-80.79427533 457.01855232 -97.36982264 443.10542207 -112 429 C-112.82628906 428.236875 -113.65257813 427.47375 -114.50390625 426.6875 C-126.84159482 414.96372531 -136.45518437 400.63365901 -145 386 C-145.66257812 384.88238281 -146.32515625 383.76476563 -147.0078125 382.61328125 C-163.15777912 353.94218666 -170.42551339 323.05329798 -176 291 C-176.19142578 289.94055176 -176.38285156 288.88110352 -176.58007812 287.78955078 C-178.59377826 276.35938755 -179.16153354 265.03463135 -179.203125 253.44140625 C-179.20882507 252.17642807 -179.21452515 250.91144989 -179.22039795 249.60813904 C-179.22979071 246.94323152 -179.23671637 244.27843493 -179.24023438 241.61352539 C-179.24459936 238.92881535 -179.25843294 236.24443023 -179.28125 233.55981445 C-179.40827421 217.41483939 -178.8972295 201.89821303 -176 186 C-175.77330118 184.65744184 -175.54826447 183.31460155 -175.32519531 181.97143555 C-168.64546833 143.10937366 -149.65400433 108.41500805 -124 79 C-123.3503125 78.23816406 -122.700625 77.47632813 -122.03125 76.69140625 C-103.11579765 54.6377084 -79.10531612 38.20410224 -54 24 C-53.31083496 23.60345215 -52.62166992 23.2069043 -51.91162109 22.79833984 C-35.64413555 13.50209021 -17.77978673 5.92659558 0 0 Z " fill="#D80B17" transform="translate(2367,1092)"/>
<path d="M0 0 C39.35257036 10.54273105 76.84925432 33.66754581 106.72265625 60.9453125 C108.6737616 62.70565798 110.66013544 64.39184323 112.6875 66.0625 C115.82731277 68.73390247 118.47663733 71.68829866 121.13671875 74.83203125 C122.396246 76.29751893 123.69219127 77.73235711 125.01953125 79.13671875 C164.20743919 120.72532736 179.47760942 177.48752357 179.375 233.3125 C179.37412384 234.47752045 179.37324768 235.64254089 179.37234497 236.84286499 C179.20054415 306.38415037 162.06283729 375.39427175 113 427 C112.38125 427.68320313 111.7625 428.36640625 111.125 429.0703125 C97.95700249 443.12009555 79.35634841 455.95638652 61 462 C62.37121613 458.92402869 64.16271578 456.33218627 66.171875 453.63842773 C90.27128524 421.25019642 105.17432788 381.34808536 113.54833984 342.10009766 C114.01038994 339.95168959 114.49922796 337.81037454 114.98828125 335.66796875 C123.88482654 295.39939533 130.20007492 246.57906216 121 206 C120.64440182 204.30080833 120.2889394 202.60158825 119.93359375 200.90234375 C109.85439759 154.42438878 85.23251425 111.46911159 58 73 C57.45456543 72.22785156 56.90913086 71.45570312 56.34716797 70.66015625 C49.17966729 60.54529178 41.77801651 50.6530468 34 41 C32.88044922 39.60587891 32.88044922 39.60587891 31.73828125 38.18359375 C24.08271422 28.74126961 16.20265948 19.47165881 8 10.5 C4.9618504 7.15858683 2.33730187 3.86162918 0 0 Z " fill="#D80B17" transform="translate(2633,1093)"/>
<path d="M0 0 C8.58 0 17.16 0 26 0 C26 30.03 26 60.06 26 91 C31.94 91 37.88 91 44 91 C44 60.97 44 30.94 44 0 C52.58 0 61.16 0 70 0 C70 30.03 70 60.06 70 91 C77.59 91 85.18 91 93 91 C93 60.97 93 30.94 93 0 C101.58 0 110.16 0 119 0 C119 40.92 119 81.84 119 124 C79.73 124 40.46 124 0 124 C0 106.84 0 89.68 0 72 C-20.46 72 -40.92 72 -62 72 C-62 78.27 -62 84.54 -62 91 C-47.48 91 -32.96 91 -18 91 C-18 101.89 -18 112.78 -18 124 C-40.44 124 -62.88 124 -86 124 C-86 97.93 -86 71.86 -86 45 C-57.62 45 -29.24 45 0 45 C0 30.15 0 15.3 0 0 Z " fill="#FEF9FA" transform="translate(831,1797)"/>
<path d="M0 0 C8.58 0 17.16 0 26 0 C26 30.03 26 60.06 26 91 C31.94 91 37.88 91 44 91 C44 60.97 44 30.94 44 0 C52.58 0 61.16 0 70 0 C70 30.03 70 60.06 70 91 C77.59 91 85.18 91 93 91 C93 60.97 93 30.94 93 0 C101.58 0 110.16 0 119 0 C119 40.92 119 81.84 119 124 C79.73 124 40.46 124 0 124 C0 106.84 0 89.68 0 72 C-20.46 72 -40.92 72 -62 72 C-62 78.27 -62 84.54 -62 91 C-47.48 91 -32.96 91 -18 91 C-18 101.56 -18 112.12 -18 123 C-40.44 123 -62.88 123 -86 123 C-86 97.26 -86 71.52 -86 45 C-57.62 45 -29.24 45 0 45 C0 30.15 0 15.3 0 0 Z " fill="#FEFAFA" transform="translate(3037,1797)"/>
<path d="M0 0 C8.58 0 17.16 0 26 0 C26 30.03 26 60.06 26 91 C31.94 91 37.88 91 44 91 C44 60.97 44 30.94 44 0 C52.25 0 60.5 0 69 0 C69 30.36 69 60.72 69 92 C76.59 92 84.18 92 92 92 C92 61.64 92 31.28 92 0 C100.58 0 109.16 0 118 0 C118 40.92 118 81.84 118 124 C79.06 124 40.12 124 0 124 C0 106.84 0 89.68 0 72 C-20.46 72 -40.92 72 -62 72 C-62 78.27 -62 84.54 -62 91 C-47.48 91 -32.96 91 -18 91 C-18 101.89 -18 112.78 -18 124 C-40.77 124 -63.54 124 -87 124 C-87 97.93 -87 71.86 -87 45 C-58.29 45 -29.58 45 0 45 C0 30.15 0 15.3 0 0 Z " fill="#FEFAFA" transform="translate(2155,1797)"/>
<path d="M0 0 C8.58 0 17.16 0 26 0 C26 30.36 26 60.72 26 92 C32.27 92 38.54 92 45 92 C45 61.64 45 31.28 45 0 C53.25 0 61.5 0 70 0 C70 30.03 70 60.06 70 91 C77.59 91 85.18 91 93 91 C93 60.97 93 30.94 93 0 C101.58 0 110.16 0 119 0 C119 40.92 119 81.84 119 124 C79.73 124 40.46 124 0 124 C0 106.84 0 89.68 0 72 C-20.46 72 -40.92 72 -62 72 C-62 78.27 -62 84.54 -62 91 C-47.48 91 -32.96 91 -18 91 C-18 101.89 -18 112.78 -18 124 C-40.44 124 -62.88 124 -86 124 C-86 97.93 -86 71.86 -86 45 C-57.62 45 -29.24 45 0 45 C0 30.15 0 15.3 0 0 Z " fill="#FEFAFA" transform="translate(1272,1797)"/>
<path d="M0 0 C8.25 0 16.5 0 25 0 C25 30.36 25 60.72 25 92 C31.27 92 37.54 92 44 92 C44 61.64 44 31.28 44 0 C52.58 0 61.16 0 70 0 C70 30.03 70 60.06 70 91 C77.26 91 84.52 91 92 91 C92 60.97 92 30.94 92 0 C100.58 0 109.16 0 118 0 C118 40.92 118 81.84 118 124 C79.06 124 40.12 124 0 124 C0 106.84 0 89.68 0 72 C-20.46 72 -40.92 72 -62 72 C-62 78.27 -62 84.54 -62 91 C-47.48 91 -32.96 91 -18 91 C-18 101.89 -18 112.78 -18 124 C-40.77 124 -63.54 124 -87 124 C-87 98.26 -87 72.52 -87 46 C-58.29 46 -29.58 46 0 46 C0 30.82 0 15.64 0 0 Z " fill="#FEFAFB" transform="translate(4361,1797)"/>
<path d="M0 0 C8.25 0 16.5 0 25 0 C25 30.36 25 60.72 25 92 C31.27 92 37.54 92 44 92 C44 61.64 44 31.28 44 0 C52.25 0 60.5 0 69 0 C69 30.03 69 60.06 69 91 C76.59 91 84.18 91 92 91 C92 60.97 92 30.94 92 0 C100.58 0 109.16 0 118 0 C118 40.92 118 81.84 118 124 C79.06 124 40.12 124 0 124 C0 106.84 0 89.68 0 72 C-20.46 72 -40.92 72 -62 72 C-62 78.27 -62 84.54 -62 91 C-47.48 91 -32.96 91 -18 91 C-18 101.89 -18 112.78 -18 124 C-40.77 124 -63.54 124 -87 124 C-87 98.26 -87 72.52 -87 46 C-58.29 46 -29.58 46 0 46 C0 30.82 0 15.64 0 0 Z " fill="#FEFBFC" transform="translate(1714,1797)"/>
<path d="M0 0 C8.25 0 16.5 0 25 0 C25 30.03 25 60.06 25 91 C30.94 91 36.88 91 43 91 C43 60.97 43 30.94 43 0 C51.58 0 60.16 0 69 0 C69 30.03 69 60.06 69 91 C76.59 91 84.18 91 92 91 C92 60.97 92 30.94 92 0 C100.58 0 109.16 0 118 0 C118 40.92 118 81.84 118 124 C79.06 124 40.12 124 0 124 C0 106.84 0 89.68 0 72 C-20.79 72 -41.58 72 -63 72 C-63 78.27 -63 84.54 -63 91 C-48.48 91 -33.96 91 -19 91 C-19 101.56 -19 112.12 -19 123 C-41.44 123 -63.88 123 -87 123 C-87 97.59 -87 72.18 -87 46 C-58.29 46 -29.58 46 0 46 C0 30.82 0 15.64 0 0 Z " fill="#FEFBFB" transform="translate(3479,1797)"/>
<path d="M0 0 C8.25 0 16.5 0 25 0 C25 30.36 25 60.72 25 92 C31.27 92 37.54 92 44 92 C44 61.64 44 31.28 44 0 C52.25 0 60.5 0 69 0 C69 30.03 69 60.06 69 91 C76.59 91 84.18 91 92 91 C92 60.97 92 30.94 92 0 C100.58 0 109.16 0 118 0 C118 40.92 118 81.84 118 124 C79.06 124 40.12 124 0 124 C0 106.84 0 89.68 0 72 C-20.79 72 -41.58 72 -63 72 C-63 78.27 -63 84.54 -63 91 C-48.15 91 -33.3 91 -18 91 C-18 101.89 -18 112.78 -18 124 C-40.77 124 -63.54 124 -87 124 C-87 98.26 -87 72.52 -87 46 C-58.29 46 -29.58 46 0 46 C0 30.82 0 15.64 0 0 Z " fill="#FEFBFC" transform="translate(389,1797)"/>
<path d="M0 0 C8.25 0 16.5 0 25 0 C25 30.36 25 60.72 25 92 C31.27 92 37.54 92 44 92 C44 61.64 44 31.28 44 0 C52.25 0 60.5 0 69 0 C69 30.36 69 60.72 69 92 C76.59 92 84.18 92 92 92 C92 61.64 92 31.28 92 0 C100.58 0 109.16 0 118 0 C118 40.92 118 81.84 118 124 C79.06 124 40.12 124 0 124 C0 106.84 0 89.68 0 72 C-20.46 72 -40.92 72 -62 72 C-62 78.27 -62 84.54 -62 91 C-47.48 91 -32.96 91 -18 91 C-18 101.89 -18 112.78 -18 124 C-40.77 124 -63.54 124 -87 124 C-87 98.26 -87 72.52 -87 46 C-58.29 46 -29.58 46 0 46 C0 30.82 0 15.64 0 0 Z " fill="#FEFCFC" transform="translate(3920,1797)"/>
<path d="M0 0 C8.58 0 17.16 0 26 0 C26 30.03 26 60.06 26 91 C31.94 91 37.88 91 44 91 C44 60.97 44 30.94 44 0 C52.58 0 61.16 0 70 0 C70 30.36 70 60.72 70 92 C77.59 92 85.18 92 93 92 C93 61.64 93 31.28 93 0 C101.25 0 109.5 0 118 0 C118 40.92 118 81.84 118 124 C79.06 124 40.12 124 0 124 C0 106.84 0 89.68 0 72 C-20.46 72 -40.92 72 -62 72 C-62 78.27 -62 84.54 -62 91 C-47.48 91 -32.96 91 -18 91 C-18 101.56 -18 112.12 -18 123 C-40.44 123 -62.88 123 -86 123 C-86 97.59 -86 72.18 -86 46 C-57.62 46 -29.24 46 0 46 C0 30.82 0 15.64 0 0 Z " fill="#FEFCFC" transform="translate(4802,1797)"/>
<path d="M0 0 C8.58 0 17.16 0 26 0 C26 30.03 26 60.06 26 91 C31.94 91 37.88 91 44 91 C44 60.97 44 30.94 44 0 C52.58 0 61.16 0 70 0 C70 30.36 70 60.72 70 92 C77.59 92 85.18 92 93 92 C93 61.64 93 31.28 93 0 C101.25 0 109.5 0 118 0 C118 40.92 118 81.84 118 124 C79.06 124 40.12 124 0 124 C0 106.84 0 89.68 0 72 C-20.46 72 -40.92 72 -62 72 C-62 78.27 -62 84.54 -62 91 C-47.48 91 -32.96 91 -18 91 C-18 101.56 -18 112.12 -18 123 C-40.44 123 -62.88 123 -86 123 C-86 97.59 -86 72.18 -86 46 C-57.62 46 -29.24 46 0 46 C0 30.82 0 15.64 0 0 Z " fill="#FEFCFC" transform="translate(2596,1797)"/>
<path d="M0 0 C8.58 0 17.16 0 26 0 C26 30.03 26 60.06 26 91 C31.94 91 37.88 91 44 91 C44 60.97 44 30.94 44 0 C52.58 0 61.16 0 70 0 C70 30.03 70 60.06 70 91 C77.59 91 85.18 91 93 91 C93 60.97 93 30.94 93 0 C101.25 0 109.5 0 118 0 C118 40.59 118 81.18 118 123 C79.06 123 40.12 123 0 123 C0 106.17 0 89.34 0 72 C-20.46 72 -40.92 72 -62 72 C-62 78.27 -62 84.54 -62 91 C-47.48 91 -32.96 91 -18 91 C-18 101.56 -18 112.12 -18 123 C-40.44 123 -62.88 123 -86 123 C-86 97.26 -86 71.52 -86 45 C-57.62 45 -29.24 45 0 45 C0 30.15 0 15.3 0 0 Z " fill="#FCFDFD" transform="translate(4802,721)"/>
<path d="M0 0 C8.58 0 17.16 0 26 0 C26 30.03 26 60.06 26 91 C31.94 91 37.88 91 44 91 C44 60.97 44 30.94 44 0 C52.58 0 61.16 0 70 0 C70 30.03 70 60.06 70 91 C77.59 91 85.18 91 93 91 C93 60.97 93 30.94 93 0 C101.25 0 109.5 0 118 0 C118 40.59 118 81.18 118 123 C79.06 123 40.12 123 0 123 C0 106.17 0 89.34 0 72 C-20.46 72 -40.92 72 -62 72 C-62 78.27 -62 84.54 -62 91 C-47.48 91 -32.96 91 -18 91 C-18 101.56 -18 112.12 -18 123 C-40.44 123 -62.88 123 -86 123 C-86 97.26 -86 71.52 -86 45 C-57.62 45 -29.24 45 0 45 C0 30.15 0 15.3 0 0 Z " fill="#FCFDFC" transform="translate(2596,721)"/>
<path d="M0 0 C8.58 0 17.16 0 26 0 C26 40.92 26 81.84 26 124 C-12.94 124 -51.88 124 -92 124 C-92 107.17 -92 90.34 -92 73 C-112.79 73 -133.58 73 -155 73 C-155 79.27 -155 85.54 -155 92 C-140.48 92 -125.96 92 -111 92 C-111 102.56 -111 113.12 -111 124 C-133.44 124 -155.88 124 -179 124 C-179 98.26 -179 72.52 -179 46 C-150.29 46 -121.58 46 -92 46 C-92 31.15 -92 16.3 -92 1 C-83.75 1 -75.5 1 -67 1 C-67 31.03 -67 61.06 -67 92 C-60.73 92 -54.46 92 -48 92 C-48 61.97 -48 31.94 -48 1 C-39.75 1 -31.5 1 -23 1 C-23 31.03 -23 61.06 -23 92 C-15.41 92 -7.82 92 0 92 C0 61.64 0 31.28 0 0 Z " fill="#FCFEFD" transform="translate(1806,720)"/>
<path d="M0 0 C8.58 0 17.16 0 26 0 C26 30.36 26 60.72 26 92 C31.94 92 37.88 92 44 92 C44 61.64 44 31.28 44 0 C52.58 0 61.16 0 70 0 C70 30.36 70 60.72 70 92 C77.59 92 85.18 92 93 92 C93 61.97 93 31.94 93 1 C101.25 1 109.5 1 118 1 C118 41.59 118 82.18 118 124 C79.39 124 40.78 124 1 124 C0.67 107.17 0.34 90.34 0 73 C-20.46 72.67 -40.92 72.34 -62 72 C-62 78.6 -62 85.2 -62 92 C-47.48 92 -32.96 92 -18 92 C-18 102.56 -18 113.12 -18 124 C-40.44 124 -62.88 124 -86 124 C-86 98.26 -86 72.52 -86 46 C-57.62 46 -29.24 46 0 46 C0 30.82 0 15.64 0 0 Z " fill="#FCFDFD" transform="translate(3037,720)"/>
<path d="M0 0 C8.58 0 17.16 0 26 0 C26 30.36 26 60.72 26 92 C31.94 92 37.88 92 44 92 C44 61.64 44 31.28 44 0 C52.58 0 61.16 0 70 0 C70 30.36 70 60.72 70 92 C77.59 92 85.18 92 93 92 C93 61.97 93 31.94 93 1 C101.25 1 109.5 1 118 1 C118 41.59 118 82.18 118 124 C79.39 124 40.78 124 1 124 C0.67 107.17 0.34 90.34 0 73 C-20.46 72.67 -40.92 72.34 -62 72 C-62 78.6 -62 85.2 -62 92 C-47.48 92 -32.96 92 -18 92 C-18 102.56 -18 113.12 -18 124 C-40.44 124 -62.88 124 -86 124 C-86 98.26 -86 72.52 -86 46 C-57.62 46 -29.24 46 0 46 C0 30.82 0 15.64 0 0 Z " fill="#FCFEFD" transform="translate(831,720)"/>
<path d="M0 0 C8.25 0 16.5 0 25 0 C25 30.03 25 60.06 25 91 C31.27 91 37.54 91 44 91 C44 60.97 44 30.94 44 0 C52.25 0 60.5 0 69 0 C69 30.03 69 60.06 69 91 C76.59 91 84.18 91 92 91 C92 60.97 92 30.94 92 0 C100.58 0 109.16 0 118 0 C118 40.59 118 81.18 118 123 C79.06 123 40.12 123 0 123 C0 106.17 0 89.34 0 72 C-20.79 72 -41.58 72 -63 72 C-63 78.27 -63 84.54 -63 91 C-48.48 91 -33.96 91 -19 91 C-19 101.56 -19 112.12 -19 123 C-41.44 123 -63.88 123 -87 123 C-87 97.26 -87 71.52 -87 45 C-58.29 45 -29.58 45 0 45 C0 30.15 0 15.3 0 0 Z " fill="#FDFEFD" transform="translate(3920,721)"/>
<path d="M0 0 C8.25 0 16.5 0 25 0 C25 30.03 25 60.06 25 91 C31.27 91 37.54 91 44 91 C44 60.97 44 30.94 44 0 C52.25 0 60.5 0 69 0 C69 30.03 69 60.06 69 91 C76.59 91 84.18 91 92 91 C92 60.97 92 30.94 92 0 C100.58 0 109.16 0 118 0 C118 40.59 118 81.18 118 123 C79.06 123 40.12 123 0 123 C0 106.17 0 89.34 0 72 C-20.79 72 -41.58 72 -63 72 C-63 78.27 -63 84.54 -63 91 C-48.48 91 -33.96 91 -19 91 C-19 101.56 -19 112.12 -19 123 C-41.44 123 -63.88 123 -87 123 C-87 97.26 -87 71.52 -87 45 C-58.29 45 -29.58 45 0 45 C0 30.15 0 15.3 0 0 Z " fill="#FDFEFD" transform="translate(389,721)"/>
<path d="M0 0 C8.58 0 17.16 0 26 0 C26 40.92 26 81.84 26 124 C-12.94 124 -51.88 124 -92 124 C-92 107.17 -92 90.34 -92 73 C-112.46 73 -132.92 73 -154 73 C-154 79.27 -154 85.54 -154 92 C-139.48 92 -124.96 92 -110 92 C-110 102.56 -110 113.12 -110 124 C-132.44 124 -154.88 124 -178 124 C-178 98.26 -178 72.52 -178 46 C-149.62 46 -121.24 46 -92 46 C-92 31.15 -92 16.3 -92 1 C-83.75 1 -75.5 1 -67 1 C-67 31.03 -67 61.06 -67 92 C-60.73 92 -54.46 92 -48 92 C-48 61.97 -48 31.94 -48 1 C-39.75 1 -31.5 1 -23 1 C-23 31.03 -23 61.06 -23 92 C-15.41 92 -7.82 92 0 92 C0 61.64 0 31.28 0 0 Z " fill="#FCFDFD" transform="translate(2247,720)"/>
<path d="M0 0 C8.25 0 16.5 0 25 0 C25 30.03 25 60.06 25 91 C31.27 91 37.54 91 44 91 C44 60.97 44 30.94 44 0 C52.25 0 60.5 0 69 0 C69 30.03 69 60.06 69 91 C76.59 91 84.18 91 92 91 C92 60.97 92 30.94 92 0 C100.58 0 109.16 0 118 0 C118 40.59 118 81.18 118 123 C79.06 123 40.12 123 0 123 C0 105.84 0 88.68 0 71 C-20.79 71 -41.58 71 -63 71 C-63 77.6 -63 84.2 -63 91 C-48.48 91 -33.96 91 -19 91 C-19 101.56 -19 112.12 -19 123 C-41.44 123 -63.88 123 -87 123 C-87 97.26 -87 71.52 -87 45 C-58.29 45 -29.58 45 0 45 C0 30.15 0 15.3 0 0 Z " fill="#FDFEFD" transform="translate(3479,721)"/>
<path d="M0 0 C8.25 0 16.5 0 25 0 C25 30.03 25 60.06 25 91 C31.27 91 37.54 91 44 91 C44 60.97 44 30.94 44 0 C52.25 0 60.5 0 69 0 C69 30.03 69 60.06 69 91 C76.92 91 84.84 91 93 91 C93 60.97 93 30.94 93 0 C101.25 0 109.5 0 118 0 C118 40.59 118 81.18 118 123 C79.06 123 40.12 123 0 123 C0 106.17 0 89.34 0 72 C-20.46 72 -40.92 72 -62 72 C-62 78.27 -62 84.54 -62 91 C-47.48 91 -32.96 91 -18 91 C-18 101.56 -18 112.12 -18 123 C-40.44 123 -62.88 123 -86 123 C-86 97.26 -86 71.52 -86 45 C-57.62 45 -29.24 45 0 45 C0 30.15 0 15.3 0 0 Z " fill="#FDFEFD" transform="translate(4361,721)"/>
<path d="M0 0 C8.58 0 17.16 0 26 0 C26 30.03 26 60.06 26 91 C32.27 91 38.54 91 45 91 C45 60.97 45 30.94 45 0 C53.25 0 61.5 0 70 0 C70 30.03 70 60.06 70 91 C77.59 91 85.18 91 93 91 C93 60.97 93 30.94 93 0 C101.25 0 109.5 0 118 0 C118 40.59 118 81.18 118 123 C79.39 123 40.78 123 1 123 C1 105.84 1 88.68 1 71 C-19.79 71 -40.58 71 -62 71 C-62 77.6 -62 84.2 -62 91 C-47.48 91 -32.96 91 -18 91 C-18 101.56 -18 112.12 -18 123 C-40.44 123 -62.88 123 -86 123 C-86 97.26 -86 71.52 -86 45 C-57.62 45 -29.24 45 0 45 C0 30.15 0 15.3 0 0 Z " fill="#FDFEFD" transform="translate(1272,721)"/>
<path d="M0 0 C38.94 0 77.88 0 118 0 C118 15.51 118 31.02 118 47 C138.79 47 159.58 47 181 47 C181 40.73 181 34.46 181 28 C166.15 28 151.3 28 136 28 C136 19.09 136 10.18 136 1 C159.1 1 182.2 1 206 1 C206 27.07 206 53.14 206 80 C168.71 80 131.42 80 93 80 C93 62.51 93 45.02 93 27 C72.87 27 52.74 27 32 27 C32 44.49 32 61.98 32 80 C21.44 80 10.88 80 0 80 C0 53.6 0 27.2 0 0 Z " fill="#FEFBFB" transform="translate(1845,1841)"/>
<path d="M0 0 C38.94 0 77.88 0 118 0 C118 15.51 118 31.02 118 47 C138.79 47 159.58 47 181 47 C181 40.73 181 34.46 181 28 C166.15 28 151.3 28 136 28 C136 19.09 136 10.18 136 1 C159.1 1 182.2 1 206 1 C206.04010881 20.42603332 206.04010881 20.42603332 206.04882812 28.67773438 C206.05481645 34.31828751 206.06191648 39.95882448 206.07543945 45.59936523 C206.08626873 50.14455404 206.09227692 54.68972552 206.09487724 59.23492622 C206.09673142 60.97294958 206.10035189 62.71097194 206.10573006 64.44898796 C206.11294103 66.87478595 206.11399092 69.30051146 206.11352539 71.72631836 C206.11712067 72.45208069 206.12071594 73.17784302 206.12442017 73.92559814 C206.11405216 78.88594784 206.11405216 78.88594784 205 80 C203.54518505 80.0956161 202.08574514 80.12188351 200.62779236 80.12025452 C199.68403244 80.12162918 198.74027252 80.12300385 197.76791382 80.12442017 C196.72422638 80.12082489 195.68053894 80.11722961 194.60522461 80.11352539 C193.51267868 80.11367142 192.42013275 80.11381744 191.29447937 80.1139679 C187.66374767 80.11326822 184.03306654 80.10547329 180.40234375 80.09765625 C177.89270557 80.09579226 175.38306702 80.09436827 172.87342834 80.09336853 C166.93065407 80.08993348 160.98789616 80.08204273 155.04513031 80.07201904 C146.43224996 80.0578058 137.81936343 80.05254739 129.2064743 80.04621124 C117.13763437 80.03649856 105.06884226 80.01734306 93 80 C93 62.51 93 45.02 93 27 C72.87 27 52.74 27 32 27 C32 44.16 32 61.32 32 79 C21.44 79 10.88 79 0 79 C0 52.93 0 26.86 0 0 Z " fill="#FCFDFC" transform="translate(1845,765)"/>
<path d="M0 0 C38.94 0 77.88 0 118 0 C118 15.51 118 31.02 118 47 C138.79 47 159.58 47 181 47 C181 40.73 181 34.46 181 28 C166.48 28 151.96 28 137 28 C137 19.09 137 10.18 137 1 C159.77 1 182.54 1 206 1 C206 27.07 206 53.14 206 80 C168.71 80 131.42 80 93 80 C93 62.51 93 45.02 93 27 C72.87 27 52.74 27 32 27 C32 44.16 32 61.32 32 79 C21.44 79 10.88 79 0 79 C0 52.93 0 26.86 0 0 Z " fill="#FCFDFC" transform="translate(2727,765)"/>
<path d="M0 0 C38.94 0 77.88 0 118 0 C118 15.51 118 31.02 118 47 C138.79 47 159.58 47 181 47 C181 40.73 181 34.46 181 28 C166.48 28 151.96 28 137 28 C137 19.09 137 10.18 137 1 C159.77 1 182.54 1 206 1 C206.04010881 20.42603332 206.04010881 20.42603332 206.04882812 28.67773438 C206.05481645 34.31828751 206.06191648 39.95882448 206.07543945 45.59936523 C206.08626873 50.14455404 206.09227692 54.68972552 206.09487724 59.23492622 C206.09673142 60.97294958 206.10035189 62.71097194 206.10573006 64.44898796 C206.11294103 66.87478595 206.11399092 69.30051146 206.11352539 71.72631836 C206.11712067 72.45208069 206.12071594 73.17784302 206.12442017 73.92559814 C206.11405216 78.88594784 206.11405216 78.88594784 205 80 C203.54518505 80.0956161 202.08574514 80.12188351 200.62779236 80.12025452 C199.68403244 80.12162918 198.74027252 80.12300385 197.76791382 80.12442017 C196.72422638 80.12082489 195.68053894 80.11722961 194.60522461 80.11352539 C193.51267868 80.11367142 192.42013275 80.11381744 191.29447937 80.1139679 C187.66374767 80.11326822 184.03306654 80.10547329 180.40234375 80.09765625 C177.89270557 80.09579226 175.38306702 80.09436827 172.87342834 80.09336853 C166.93065407 80.08993348 160.98789616 80.08204273 155.04513031 80.07201904 C146.43224996 80.0578058 137.81936343 80.05254739 129.2064743 80.04621124 C117.13763437 80.03649856 105.06884226 80.01734306 93 80 C93 62.51 93 45.02 93 27 C72.87 27 52.74 27 32 27 C32 44.16 32 61.32 32 79 C21.44 79 10.88 79 0 79 C0 52.93 0 26.86 0 0 Z " fill="#FCFDFC" transform="translate(4492,765)"/>
<path d="M0 0 C38.94 0 77.88 0 118 0 C118 15.51 118 31.02 118 47 C138.79 47 159.58 47 181 47 C181 40.73 181 34.46 181 28 C166.48 28 151.96 28 137 28 C137 19.09 137 10.18 137 1 C159.77 1 182.54 1 206 1 C206.04010881 20.42603332 206.04010881 20.42603332 206.04882812 28.67773438 C206.05481645 34.31828751 206.06191648 39.95882448 206.07543945 45.59936523 C206.08626873 50.14455404 206.09227692 54.68972552 206.09487724 59.23492622 C206.09673142 60.97294958 206.10035189 62.71097194 206.10573006 64.44898796 C206.11294103 66.87478595 206.11399092 69.30051146 206.11352539 71.72631836 C206.11712067 72.45208069 206.12071594 73.17784302 206.12442017 73.92559814 C206.11405216 78.88594784 206.11405216 78.88594784 205 80 C203.54518505 80.0956161 202.08574514 80.12188351 200.62779236 80.12025452 C199.68403244 80.12162918 198.74027252 80.12300385 197.76791382 80.12442017 C196.72422638 80.12082489 195.68053894 80.11722961 194.60522461 80.11352539 C193.51267868 80.11367142 192.42013275 80.11381744 191.29447937 80.1139679 C187.66374767 80.11326822 184.03306654 80.10547329 180.40234375 80.09765625 C177.89270557 80.09579226 175.38306702 80.09436827 172.87342834 80.09336853 C166.93065407 80.08993348 160.98789616 80.08204273 155.04513031 80.07201904 C146.43224996 80.0578058 137.81936343 80.05254739 129.2064743 80.04621124 C117.13763437 80.03649856 105.06884226 80.01734306 93 80 C93 62.51 93 45.02 93 27 C72.87 27 52.74 27 32 27 C32 44.16 32 61.32 32 79 C21.44 79 10.88 79 0 79 C0 52.93 0 26.86 0 0 Z " fill="#FCFDFC" transform="translate(4051,765)"/>
<path d="M0 0 C38.94 0 77.88 0 118 0 C118 15.51 118 31.02 118 47 C138.79 47 159.58 47 181 47 C181 40.73 181 34.46 181 28 C166.48 28 151.96 28 137 28 C137 19.09 137 10.18 137 1 C159.77 1 182.54 1 206 1 C206.04010881 20.42603332 206.04010881 20.42603332 206.04882812 28.67773438 C206.05481645 34.31828751 206.06191648 39.95882448 206.07543945 45.59936523 C206.08626873 50.14455404 206.09227692 54.68972552 206.09487724 59.23492622 C206.09673142 60.97294958 206.10035189 62.71097194 206.10573006 64.44898796 C206.11294103 66.87478595 206.11399092 69.30051146 206.11352539 71.72631836 C206.11712067 72.45208069 206.12071594 73.17784302 206.12442017 73.92559814 C206.11405216 78.88594784 206.11405216 78.88594784 205 80 C203.54518505 80.0956161 202.08574514 80.12188351 200.62779236 80.12025452 C199.68403244 80.12162918 198.74027252 80.12300385 197.76791382 80.12442017 C196.72422638 80.12082489 195.68053894 80.11722961 194.60522461 80.11352539 C193.51267868 80.11367142 192.42013275 80.11381744 191.29447937 80.1139679 C187.66374767 80.11326822 184.03306654 80.10547329 180.40234375 80.09765625 C177.89270557 80.09579226 175.38306702 80.09436827 172.87342834 80.09336853 C166.93065407 80.08993348 160.98789616 80.08204273 155.04513031 80.07201904 C146.43224996 80.0578058 137.81936343 80.05254739 129.2064743 80.04621124 C117.13763437 80.03649856 105.06884226 80.01734306 93 80 C93 62.51 93 45.02 93 27 C72.87 27 52.74 27 32 27 C32 44.16 32 61.32 32 79 C21.44 79 10.88 79 0 79 C0 52.93 0 26.86 0 0 Z " fill="#FCFDFC" transform="translate(2286,765)"/>
<path d="M0 0 C38.94 0 77.88 0 118 0 C118 15.51 118 31.02 118 47 C138.46 47 158.92 47 180 47 C180 40.73 180 34.46 180 28 C165.48 28 150.96 28 136 28 C136 19.09 136 10.18 136 1 C159.1 1 182.2 1 206 1 C206 27.07 206 53.14 206 80 C168.71 80 131.42 80 93 80 C93 62.51 93 45.02 93 27 C72.54 27 52.08 27 31 27 C31 44.16 31 61.32 31 79 C20.77 79 10.54 79 0 79 C0 52.93 0 26.86 0 0 Z " fill="#FEFBFC" transform="translate(1404,1841)"/>
<path d="M0 0 C38.94 0 77.88 0 118 0 C118 15.51 118 31.02 118 47 C138.79 47 159.58 47 181 47 C181 40.73 181 34.46 181 28 C166.48 28 151.96 28 137 28 C137 19.09 137 10.18 137 1 C159.77 1 182.54 1 206 1 C206 27.07 206 53.14 206 80 C169.04 80 132.08 80 94 80 C94 62.51 94 45.02 94 27 C73.54 27 53.08 27 32 27 C32 44.49 32 61.98 32 80 C21.44 80 10.88 80 0 80 C0 53.6 0 27.2 0 0 Z " fill="#FEFCFC" transform="translate(2727,1841)"/>
<path d="M0 0 C38.94 0 77.88 0 118 0 C118 15.84 118 31.68 118 48 C138.79 48 159.58 48 181 48 C181 41.4 181 34.8 181 28 C166.48 28 151.96 28 137 28 C137 19.09 137 10.18 137 1 C159.77 1 182.54 1 206 1 C206 27.07 206 53.14 206 80 C168.71 80 131.42 80 93 80 C93 62.51 93 45.02 93 27 C72.87 27 52.74 27 32 27 C32 44.49 32 61.98 32 80 C21.44 80 10.88 80 0 80 C0 53.6 0 27.2 0 0 Z " fill="#FEFCFC" transform="translate(4492,1841)"/>
<path d="M0 0 C38.94 0 77.88 0 118 0 C118 15.84 118 31.68 118 48 C138.79 48 159.58 48 181 48 C181 41.4 181 34.8 181 28 C166.48 28 151.96 28 137 28 C137 19.09 137 10.18 137 1 C159.77 1 182.54 1 206 1 C206 27.07 206 53.14 206 80 C168.71 80 131.42 80 93 80 C93 62.51 93 45.02 93 27 C72.87 27 52.74 27 32 27 C32 44.49 32 61.98 32 80 C21.44 80 10.88 80 0 80 C0 53.6 0 27.2 0 0 Z " fill="#FEFCFC" transform="translate(4051,1841)"/>
<path d="M0 0 C38.94 0 77.88 0 118 0 C118 15.84 118 31.68 118 48 C138.79 48 159.58 48 181 48 C181 41.4 181 34.8 181 28 C166.48 28 151.96 28 137 28 C137 19.09 137 10.18 137 1 C159.77 1 182.54 1 206 1 C206 27.07 206 53.14 206 80 C168.71 80 131.42 80 93 80 C93 62.51 93 45.02 93 27 C72.87 27 52.74 27 32 27 C32 44.49 32 61.98 32 80 C21.44 80 10.88 80 0 80 C0 53.6 0 27.2 0 0 Z " fill="#FEFCFC" transform="translate(2286,1841)"/>
<path d="M0 0 C38.94 0 77.88 0 118 0 C118 15.51 118 31.02 118 47 C138.46 47 158.92 47 180 47 C180 40.73 180 34.46 180 28 C165.48 28 150.96 28 136 28 C136 19.09 136 10.18 136 1 C158.77 1 181.54 1 205 1 C205 27.07 205 53.14 205 80 C167.71 80 130.42 80 92 80 C92 62.51 92 45.02 92 27 C71.87 27 51.74 27 31 27 C31 44.16 31 61.32 31 79 C20.77 79 10.54 79 0 79 C0 52.93 0 26.86 0 0 Z " fill="#FCFDFC" transform="translate(3169,765)"/>
<path d="M0 0 C38.94 0 77.88 0 118 0 C118 15.51 118 31.02 118 47 C138.46 47 158.92 47 180 47 C180 40.73 180 34.46 180 28 C165.48 28 150.96 28 136 28 C136 19.09 136 10.18 136 1 C158.77 1 181.54 1 205 1 C205 27.07 205 53.14 205 80 C167.71 80 130.42 80 92 80 C92 62.51 92 45.02 92 27 C71.87 27 51.74 27 31 27 C31 44.16 31 61.32 31 79 C20.77 79 10.54 79 0 79 C0 52.93 0 26.86 0 0 Z " fill="#FCFDFC" transform="translate(963,765)"/>
<path d="M0 0 C38.61 0 77.22 0 117 0 C117 15.51 117 31.02 117 47 C137.79 47 158.58 47 180 47 C180 40.73 180 34.46 180 28 C165.48 28 150.96 28 136 28 C136 19.09 136 10.18 136 1 C158.77 1 181.54 1 205 1 C205 27.07 205 53.14 205 80 C167.71 80 130.42 80 92 80 C92 62.51 92 45.02 92 27 C71.87 27 51.74 27 31 27 C31 44.16 31 61.32 31 79 C20.77 79 10.54 79 0 79 C0 52.93 0 26.86 0 0 Z " fill="#FDFEFD" transform="translate(522,765)"/>
<path d="M0 0 C38.94 0 77.88 0 118 0 C118 15.51 118 31.02 118 47 C138.46 47 158.92 47 180 47 C180 40.73 180 34.46 180 28 C165.48 28 150.96 28 136 28 C136 19.09 136 10.18 136 1 C158.77 1 181.54 1 205 1 C205 27.07 205 53.14 205 80 C168.04 80 131.08 80 93 80 C93 62.51 93 45.02 93 27 C72.54 27 52.08 27 31 27 C31 44.16 31 61.32 31 79 C20.77 79 10.54 79 0 79 C0 52.93 0 26.86 0 0 Z " fill="#FEFCFC" transform="translate(963,1841)"/>
<path d="M0 0 C38.94 0 77.88 0 118 0 C118 15.51 118 31.02 118 47 C138.46 47 158.92 47 180 47 C180 40.73 180 34.46 180 28 C165.48 28 150.96 28 136 28 C136 19.09 136 10.18 136 1 C158.77 1 181.54 1 205 1 C205 27.07 205 53.14 205 80 C168.04 80 131.08 80 93 80 C93 62.51 93 45.02 93 27 C72.54 27 52.08 27 31 27 C31 44.16 31 61.32 31 79 C20.77 79 10.54 79 0 79 C0 52.93 0 26.86 0 0 Z " fill="#FEFCFC" transform="translate(522,1841)"/>
<path d="M0 0 C38.94 0 77.88 0 118 0 C118 15.51 118 31.02 118 47 C138.46 47 158.92 47 180 47 C180 40.73 180 34.46 180 28 C165.48 28 150.96 28 136 28 C136 19.09 136 10.18 136 1 C158.77 1 181.54 1 205 1 C205 27.07 205 53.14 205 80 C168.04 80 131.08 80 93 80 C93 62.51 93 45.02 93 27 C72.54 27 52.08 27 31 27 C31 44.16 31 61.32 31 79 C20.77 79 10.54 79 0 79 C0 52.93 0 26.86 0 0 Z " fill="#FEFCFD" transform="translate(79,1841)"/>
<path d="M0 0 C38.94 0 77.88 0 118 0 C118 15.51 118 31.02 118 47 C138.46 47 158.92 47 180 47 C180 40.73 180 34.46 180 28 C165.48 28 150.96 28 136 28 C136 19.09 136 10.18 136 1 C158.77 1 181.54 1 205 1 C205 27.07 205 53.14 205 80 C168.04 80 131.08 80 93 80 C93 62.51 93 45.02 93 27 C72.54 27 52.08 27 31 27 C31 44.16 31 61.32 31 79 C20.77 79 10.54 79 0 79 C0 52.93 0 26.86 0 0 Z " fill="#FDFEFD" transform="translate(79,765)"/>
<path d="M0 0 C38.94 0 77.88 0 118 0 C118 15.84 118 31.68 118 48 C138.79 48 159.58 48 181 48 C181 41.4 181 34.8 181 28 C166.15 28 151.3 28 136 28 C136 19.09 136 10.18 136 1 C159.1 1 182.2 1 206 1 C206.04010881 20.42603332 206.04010881 20.42603332 206.04882812 28.67773438 C206.05481645 34.31828751 206.06191648 39.95882448 206.07543945 45.59936523 C206.08626873 50.14455404 206.09227692 54.68972552 206.09487724 59.23492622 C206.09673142 60.97294958 206.10035189 62.71097194 206.10573006 64.44898796 C206.11294103 66.87478595 206.11399092 69.30051146 206.11352539 71.72631836 C206.11712067 72.45208069 206.12071594 73.17784302 206.12442017 73.92559814 C206.11405216 78.88594784 206.11405216 78.88594784 205 80 C203.54518505 80.0956161 202.08574514 80.12188351 200.62779236 80.12025452 C199.68403244 80.12162918 198.74027252 80.12300385 197.76791382 80.12442017 C196.72422638 80.12082489 195.68053894 80.11722961 194.60522461 80.11352539 C193.51267868 80.11367142 192.42013275 80.11381744 191.29447937 80.1139679 C187.66374767 80.11326822 184.03306654 80.10547329 180.40234375 80.09765625 C177.89270557 80.09579226 175.38306702 80.09436827 172.87342834 80.09336853 C166.93065407 80.08993348 160.98789616 80.08204273 155.04513031 80.07201904 C146.43224996 80.0578058 137.81936343 80.05254739 129.2064743 80.04621124 C117.13763437 80.03649856 105.06884226 80.01734306 93 80 C93 62.51 93 45.02 93 27 C72.54 27 52.08 27 31 27 C31 44.16 31 61.32 31 79 C20.77 79 10.54 79 0 79 C0 52.93 0 26.86 0 0 Z " fill="#FEFCFC" transform="translate(3610,1841)"/>
<path d="M0 0 C38.94 0 77.88 0 118 0 C118 15.51 118 31.02 118 47 C138.79 47 159.58 47 181 47 C181 40.73 181 34.46 181 28 C166.15 28 151.3 28 136 28 C136 19.09 136 10.18 136 1 C158.77 1 181.54 1 205 1 C205 27.07 205 53.14 205 80 C168.04 80 131.08 80 93 80 C93 62.51 93 45.02 93 27 C72.54 27 52.08 27 31 27 C31 44.16 31 61.32 31 79 C20.77 79 10.54 79 0 79 C0 52.93 0 26.86 0 0 Z " fill="#FEFDFD" transform="translate(3169,1841)"/>
<path d="M0 0 C38.94 0 77.88 0 118 0 C118 15.51 118 31.02 118 47 C138.79 47 159.58 47 181 47 C181 40.73 181 34.46 181 28 C166.15 28 151.3 28 136 28 C136 19.09 136 10.18 136 1 C158.77 1 181.54 1 205 1 C205 27.07 205 53.14 205 80 C168.04 80 131.08 80 93 80 C93 62.51 93 45.02 93 27 C72.54 27 52.08 27 31 27 C31 44.16 31 61.32 31 79 C20.77 79 10.54 79 0 79 C0 52.93 0 26.86 0 0 Z " fill="#FDFEFD" transform="translate(3610,765)"/>
<path d="M0 0 C38.94 0 77.88 0 118 0 C118 15.51 118 31.02 118 47 C138.79 47 159.58 47 181 47 C181 40.73 181 34.46 181 28 C166.15 28 151.3 28 136 28 C136 19.09 136 10.18 136 1 C158.77 1 181.54 1 205 1 C205 27.07 205 53.14 205 80 C168.04 80 131.08 80 93 80 C93 62.51 93 45.02 93 27 C72.54 27 52.08 27 31 27 C31 44.16 31 61.32 31 79 C20.77 79 10.54 79 0 79 C0 52.93 0 26.86 0 0 Z " fill="#FDFEFD" transform="translate(1404,765)"/>
<path d="M0 0 C96.36 0 192.72 0 292 0 C292 8.58 292 17.16 292 26 C195.64 26 99.28 26 0 26 C0 17.42 0 8.84 0 0 Z " fill="#FAFCFA" transform="translate(3169,721)"/>
<path d="M0 0 C96.03 0 192.06 0 291 0 C291 8.58 291 17.16 291 26 C194.97 26 98.94 26 0 26 C0 17.42 0 8.84 0 0 Z " fill="#FEFBFB" transform="translate(4493,1797)"/>
<path d="M0 0 C96.03 0 192.06 0 291 0 C291 8.58 291 17.16 291 26 C194.97 26 98.94 26 0 26 C0 17.42 0 8.84 0 0 Z " fill="#FEFBFB" transform="translate(4052,1797)"/>
<path d="M0 0 C96.03 0 192.06 0 291 0 C291 8.58 291 17.16 291 26 C194.97 26 98.94 26 0 26 C0 17.42 0 8.84 0 0 Z " fill="#FEFBFB" transform="translate(3611,1797)"/>
<path d="M0 0 C96.03 0 192.06 0 291 0 C291 8.58 291 17.16 291 26 C194.97 26 98.94 26 0 26 C0 17.42 0 8.84 0 0 Z " fill="#FEFBFB" transform="translate(3169,1797)"/>
<path d="M0 0 C96.03 0 192.06 0 291 0 C291 8.58 291 17.16 291 26 C194.97 26 98.94 26 0 26 C0 17.42 0 8.84 0 0 Z " fill="#FEFBFB" transform="translate(2728,1797)"/>
<path d="M0 0 C96.03 0 192.06 0 291 0 C291 8.58 291 17.16 291 26 C194.97 26 98.94 26 0 26 C0 17.42 0 8.84 0 0 Z " fill="#FEFBFB" transform="translate(2287,1797)"/>
<path d="M0 0 C96.03 0 192.06 0 291 0 C291 8.58 291 17.16 291 26 C194.97 26 98.94 26 0 26 C0 17.42 0 8.84 0 0 Z " fill="#FEFBFB" transform="translate(1846,1797)"/>
<path d="M0 0 C96.03 0 192.06 0 291 0 C291 8.58 291 17.16 291 26 C194.97 26 98.94 26 0 26 C0 17.42 0 8.84 0 0 Z " fill="#FEFBFB" transform="translate(1405,1797)"/>
<path d="M0 0 C96.03 0 192.06 0 291 0 C291 8.58 291 17.16 291 26 C194.97 26 98.94 26 0 26 C0 17.42 0 8.84 0 0 Z " fill="#FEFBFB" transform="translate(522,1797)"/>
<path d="M0 0 C96.03 0 192.06 0 291 0 C291 8.58 291 17.16 291 26 C194.97 26 98.94 26 0 26 C0 17.42 0 8.84 0 0 Z " fill="#FBFDFB" transform="translate(4493,721)"/>
<path d="M0 0 C96.03 0 192.06 0 291 0 C291 8.58 291 17.16 291 26 C194.97 26 98.94 26 0 26 C0 17.42 0 8.84 0 0 Z " fill="#FBFDFB" transform="translate(4052,721)"/>
<path d="M0 0 C96.03 0 192.06 0 291 0 C291 8.58 291 17.16 291 26 C194.97 26 98.94 26 0 26 C0 17.42 0 8.84 0 0 Z " fill="#FAFDFB" transform="translate(3611,721)"/>
<path d="M0 0 C96.03 0 192.06 0 291 0 C291 8.58 291 17.16 291 26 C194.97 26 98.94 26 0 26 C0 17.42 0 8.84 0 0 Z " fill="#FBFDFB" transform="translate(2728,721)"/>
<path d="M0 0 C96.03 0 192.06 0 291 0 C291 8.58 291 17.16 291 26 C194.97 26 98.94 26 0 26 C0 17.42 0 8.84 0 0 Z " fill="#FBFDFB" transform="translate(2287,721)"/>
<path d="M0 0 C96.03 0 192.06 0 291 0 C291 8.58 291 17.16 291 26 C194.97 26 98.94 26 0 26 C0 17.42 0 8.84 0 0 Z " fill="#FBFDFB" transform="translate(1846,721)"/>
<path d="M0 0 C96.03 0 192.06 0 291 0 C291 8.58 291 17.16 291 26 C194.97 26 98.94 26 0 26 C0 17.42 0 8.84 0 0 Z " fill="#FBFDFB" transform="translate(1405,721)"/>
<path d="M0 0 C96.03 0 192.06 0 291 0 C291 8.58 291 17.16 291 26 C194.97 26 98.94 26 0 26 C0 17.42 0 8.84 0 0 Z " fill="#FAFDFB" transform="translate(963,721)"/>
<path d="M0 0 C96.03 0 192.06 0 291 0 C291 8.58 291 17.16 291 26 C194.97 26 98.94 26 0 26 C0 17.42 0 8.84 0 0 Z " fill="#FBFDFB" transform="translate(522,721)"/>
<path d="M0 0 C96.03 0 192.06 0 291 0 C291 8.58 291 17.16 291 26 C194.97 26 98.94 26 0 26 C0 17.42 0 8.84 0 0 Z " fill="#FAFDFB" transform="translate(80,721)"/>
<path d="M0 0 C95.7 0 191.4 0 290 0 C290 8.58 290 17.16 290 26 C194.3 26 98.6 26 0 26 C0 17.42 0 8.84 0 0 Z " fill="#FEFBFB" transform="translate(964,1797)"/>
<path d="M0 0 C95.7 0 191.4 0 290 0 C290 8.58 290 17.16 290 26 C194.3 26 98.6 26 0 26 C0 17.42 0 8.84 0 0 Z " fill="#FEFBFB" transform="translate(80,1797)"/>
<path d="M0 0 C2 1 2 1 2.8515625 2.87890625 C5.00759618 10.35968979 5.29247833 17.49513786 5.3125 25.25 C5.31781738 26.27939697 5.32313477 27.30879395 5.32861328 28.36938477 C5.21838637 40.33480557 2.10107386 51.97606552 -6.3125 60.9375 C-16.4125401 70.01867641 -27.9049554 71.70618277 -41.09765625 71.30078125 C-51.83173293 70.47342999 -58.80777437 65.84369534 -66 58 C-71.88161324 50.70564632 -75.17538055 41.27696878 -76 32 C-76.13535156 32.70382812 -76.27070313 33.40765625 -76.41015625 34.1328125 C-79.14027899 46.65541142 -83.86123244 58.80960858 -95 66 C-106.49768375 71.84308518 -119.46919782 72.85274436 -131.875 69.4375 C-143.14361833 65.47415017 -150.16862212 57.90079994 -155.3203125 47.27734375 C-160.68604012 33.03752815 -159.97725153 14.90244663 -154 1 C-151.25430446 3.74569554 -150.72331763 6.92476787 -149.6875 10.5625 C-146.28078042 21.9461143 -141.60015239 31.49066588 -131.16015625 37.921875 C-122.13745928 42.42506553 -112.74264801 42.04155293 -103.1875 39.375 C-92.51587853 35.71064805 -85.24748471 28.77410928 -80.25 18.75 C-79.86328125 17.91984375 -79.4765625 17.0896875 -79.078125 16.234375 C-78 14 -78 14 -76 11 C-75.56429687 11.92941406 -75.12859375 12.85882812 -74.6796875 13.81640625 C-68.89322337 25.93637074 -63.36495637 33.65814426 -50.51953125 39.0390625 C-40.99715909 42.27878848 -31.23787288 42.07327174 -22 38 C-10.71865126 31.54489671 -5.47181534 20.70078999 -2.0234375 8.5625 C-1.3050859 5.71594787 -0.62551762 2.86822716 0 0 Z " fill="#D80D18" transform="translate(2576,1012)"/>
<path d="M0 0 C10.56 0 21.12 0 32 0 C32 11.22 32 22.44 32 34 C21.44 34 10.88 34 0 34 C0 22.78 0 11.56 0 0 Z " fill="#F6FBF7" transform="translate(4536,810)"/>
<path d="M0 0 C10.56 0 21.12 0 32 0 C32 11.22 32 22.44 32 34 C21.44 34 10.88 34 0 34 C0 22.78 0 11.56 0 0 Z " fill="#F7FBF7" transform="translate(4095,810)"/>
<path d="M0 0 C10.56 0 21.12 0 32 0 C32 11.22 32 22.44 32 34 C21.44 34 10.88 34 0 34 C0 22.78 0 11.56 0 0 Z " fill="#F6FAF7" transform="translate(3212,810)"/>
<path d="M0 0 C10.56 0 21.12 0 32 0 C32 11.22 32 22.44 32 34 C21.44 34 10.88 34 0 34 C0 22.78 0 11.56 0 0 Z " fill="#F6FBF7" transform="translate(2771,810)"/>
<path d="M0 0 C10.56 0 21.12 0 32 0 C32 11.22 32 22.44 32 34 C21.44 34 10.88 34 0 34 C0 22.78 0 11.56 0 0 Z " fill="#F7FBF8" transform="translate(2330,810)"/>
<path d="M0 0 C10.56 0 21.12 0 32 0 C32 11.22 32 22.44 32 34 C21.44 34 10.88 34 0 34 C0 22.78 0 11.56 0 0 Z " fill="#F6FBF7" transform="translate(1889,810)"/>
<path d="M0 0 C10.56 0 21.12 0 32 0 C32 11.22 32 22.44 32 34 C21.44 34 10.88 34 0 34 C0 22.78 0 11.56 0 0 Z " fill="#F5FAF6" transform="translate(1006,810)"/>
<path d="M0 0 C10.56 0 21.12 0 32 0 C32 11.22 32 22.44 32 34 C21.44 34 10.88 34 0 34 C0 22.78 0 11.56 0 0 Z " fill="#F7FBF8" transform="translate(565,810)"/>
<path d="M0 0 C10.56 0 21.12 0 32 0 C32 10.89 32 21.78 32 33 C21.44 33 10.88 33 0 33 C0 22.11 0 11.22 0 0 Z " fill="#FEFAFA" transform="translate(4536,1887)"/>
<path d="M0 0 C10.56 0 21.12 0 32 0 C32 10.89 32 21.78 32 33 C21.44 33 10.88 33 0 33 C0 22.11 0 11.22 0 0 Z " fill="#FEFAFA" transform="translate(2771,1887)"/>
<path d="M0 0 C10.56 0 21.12 0 32 0 C32 10.89 32 21.78 32 33 C21.44 33 10.88 33 0 33 C0 22.11 0 11.22 0 0 Z " fill="#FEFBFB" transform="translate(2330,1887)"/>
<path d="M0 0 C10.56 0 21.12 0 32 0 C32 10.89 32 21.78 32 33 C21.44 33 10.88 33 0 33 C0 22.11 0 11.22 0 0 Z " fill="#FEF9F9" transform="translate(1006,1887)"/>
<path d="M0 0 C10.56 0 21.12 0 32 0 C32 10.89 32 21.78 32 33 C21.44 33 10.88 33 0 33 C0 22.11 0 11.22 0 0 Z " fill="#FEFBFB" transform="translate(565,1887)"/>
<path d="M0 0 C10.23 0 20.46 0 31 0 C31 10.89 31 21.78 31 33 C20.77 33 10.54 33 0 33 C0 22.11 0 11.22 0 0 Z " fill="#FEFEFE" transform="translate(4095,1887)"/>
<path d="M0 0 C10.23 0 20.46 0 31 0 C31 10.89 31 21.78 31 33 C20.77 33 10.54 33 0 33 C0 22.11 0 11.22 0 0 Z " fill="#FEFEFE" transform="translate(3654,1887)"/>
<path d="M0 0 C10.23 0 20.46 0 31 0 C31 10.89 31 21.78 31 33 C20.77 33 10.54 33 0 33 C0 22.11 0 11.22 0 0 Z " fill="#FEFEFE" transform="translate(3213,1887)"/>
<path d="M0 0 C10.23 0 20.46 0 31 0 C31 10.89 31 21.78 31 33 C20.77 33 10.54 33 0 33 C0 22.11 0 11.22 0 0 Z " fill="#FEFDFD" transform="translate(1889,1887)"/>
<path d="M0 0 C10.23 0 20.46 0 31 0 C31 10.89 31 21.78 31 33 C20.77 33 10.54 33 0 33 C0 22.11 0 11.22 0 0 Z " fill="#FEFEFE" transform="translate(1448,1887)"/>
<path d="M0 0 C10.23 0 20.46 0 31 0 C31 10.89 31 21.78 31 33 C20.77 33 10.54 33 0 33 C0 22.11 0 11.22 0 0 Z " fill="#FEFEFE" transform="translate(123,1887)"/>
<path d="M0 0 C10.23 0 20.46 0 31 0 C31 10.56 31 21.12 31 32 C20.77 32 10.54 32 0 32 C0 21.44 0 10.88 0 0 Z " fill="#FEFEFE" transform="translate(3654,811)"/>
<path d="M0 0 C10.23 0 20.46 0 31 0 C31 10.56 31 21.12 31 32 C20.77 32 10.54 32 0 32 C0 21.44 0 10.88 0 0 Z " fill="#FEFEFE" transform="translate(1448,811)"/>
<path d="M0 0 C10.23 0 20.46 0 31 0 C31 10.56 31 21.12 31 32 C20.77 32 10.54 32 0 32 C0 21.44 0 10.88 0 0 Z " fill="#FEFEFE" transform="translate(123,811)"/>
<path d="M0 0 C1.76923828 0.01353516 1.76923828 0.01353516 3.57421875 0.02734375 C4.47785156 0.03894531 5.38148438 0.05054688 6.3125 0.0625 C3.49765955 2.87734045 1.0958753 2.69007042 -2.8125 3.1875 C-4.09382813 3.35507813 -5.37515625 3.52265625 -6.6953125 3.6953125 C-7.68273438 3.81648438 -8.67015625 3.93765625 -9.6875 4.0625 C-9.6875 3.0725 -9.6875 2.0825 -9.6875 1.0625 C-6.26517028 -0.07827657 -3.60076783 -0.03565117 0 0 Z " fill="#D8131E" transform="translate(2657.6875,1617.9375)"/>
<path d="M0 0 C0.66 0.33 1.32 0.66 2 1 C2.40729228 3.32156597 2.74438677 5.6568787 3 8 C1.68 8.99 0.36 9.98 -1 11 C-1.14285714 3.57142857 -1.14285714 3.57142857 0 0 Z " fill="#DD2F39" transform="translate(2576,1012)"/>
<path d="M0 0 C0.33 0.66 0.66 1.32 1 2 C-1.31 3.65 -3.62 5.3 -6 7 C-6 6.34 -6 5.68 -6 5 C-6.66 5 -7.32 5 -8 5 C-8 4.34 -8 3.68 -8 3 C-5.36 2.01 -2.72 1.02 0 0 Z " fill="#DC2A34" transform="translate(2367,1092)"/>
<path d="M0 0 C0.66 0.66 1.32 1.32 2 2 C-0.64 4.31 -3.28 6.62 -6 9 C-6.66 8.67 -7.32 8.34 -8 8 C-5.36 5.36 -2.72 2.72 0 0 Z " fill="#DA1F29" transform="translate(2498,1076)"/>
<path d="M0 0 C0.66 0.33 1.32 0.66 2 1 C-3 7.57142857 -3 7.57142857 -8 9 C-7.04270084 7.87411986 -6.08412105 6.7493285 -5.125 5.625 C-4.59132813 4.99851562 -4.05765625 4.37203125 -3.5078125 3.7265625 C-2.38567993 2.44163349 -1.20628025 1.20628025 0 0 Z " fill="#DD303A" transform="translate(2382,1114)"/>
<path d="M0 0 C0.33 0.66 0.66 1.32 1 2 C1.99 2 2.98 2 4 2 C4 2.66 4 3.32 4 4 C1.36 4.99 -1.28 5.98 -4 7 C-2.79618552 4.50638429 -1.54571278 2.31856917 0 0 Z " fill="#DA212C" transform="translate(2698,1548)"/>
<path d="M0 0 C0.99 0.33 1.98 0.66 3 1 C-0.465 3.97 -0.465 3.97 -4 7 C-4.66 6.67 -5.32 6.34 -6 6 C-4.02 4.02 -2.04 2.04 0 0 Z " fill="#DB262F" transform="translate(2472,1103)"/>
<path d="M0 0 C0.66 0.33 1.32 0.66 2 1 C0.68 3.31 -0.64 5.62 -2 8 C-2.33 7.34 -2.66 6.68 -3 6 C-3.66 5.67 -4.32 5.34 -5 5 C-3.35 3.35 -1.7 1.7 0 0 Z " fill="#DD3139" transform="translate(2392,1105)"/>
<path d="M0 0 C2 2 2 2 2.125 5.125 C2.08375 6.07375 2.0425 7.0225 2 8 C1.34 8 0.68 8 0 8 C-0.33 8.66 -0.66 9.32 -1 10 C-0.67 6.7 -0.34 3.4 0 0 Z " fill="#F3B7BA" transform="translate(2499,1042)"/>
<path d="M0 0 C2 2 2 2 2.125 5.625 C2.08375 6.73875 2.0425 7.8525 2 9 C1.01 8.34 0.02 7.68 -1 7 C-0.67 4.69 -0.34 2.38 0 0 Z " fill="#D91B24" transform="translate(2422,1013)"/>
</svg>
