<?xml version="1.0" encoding="UTF-8"?>
<svg version="1.1" xmlns="http://www.w3.org/2000/svg" width="5000" height="2638">
<path d="M0 0 C1650 0 3300 0 5000 0 C5000 870.54 5000 1741.08 5000 2638 C3350 2638 1700 2638 0 2638 C0 1767.46 0 896.92 0 0 Z " fill="#FEFEFE" transform="translate(0,0)"/>
<path d="M0 0 C1649.34 0 3298.68 0 4998 0 C4998 167.64 4998 335.28 4998 508 C3348.66 508 1699.32 508 0 508 C0 340.36 0 172.72 0 0 Z " fill="#083CB4" transform="translate(0,0)"/>
<path d="M0 0 C1649.34 0 3298.68 0 4998 0 C4998 161.04 4998 322.08 4998 488 C3348.66 488 1699.32 488 0 488 C0 326.96 0 165.92 0 0 Z " fill="#083CB4" transform="translate(0,2150)"/>
<path d="M0 0 C3.88889425 1.29629808 4.166712 2.6003561 6.08203125 6.16015625 C6.67685303 7.25126709 7.2716748 8.34237793 7.88452148 9.46655273 C8.19815643 10.05169647 8.51179138 10.63684021 8.83493042 11.23971558 C10.50310979 14.3502168 12.20281817 17.44346145 13.8984375 20.5390625 C14.24347824 21.17087936 14.58851898 21.80269623 14.9440155 22.45365906 C18.16852301 28.34460898 21.53117512 34.14988808 24.9375 39.9375 C29.99587525 48.55050612 34.99137649 57.19714381 39.9375 65.875 C45.10039668 74.9309793 50.28365732 83.9746483 55.5 93 C61.03239114 102.57375227 66.53030585 112.16669358 72.01025391 121.77050781 C76.81717909 130.19367328 81.6477315 138.60284964 86.5 147 C91.66831052 155.94554468 96.81416326 164.90363416 101.9375 173.875 C102.26860779 174.45471558 102.59971558 175.03443115 102.94085693 175.63171387 C106.31521064 181.54016638 109.68690462 187.45013089 113.05583191 193.36167908 C114.74476211 196.32490498 116.43465122 199.28758312 118.125 202.25 C118.45746735 202.83276703 118.78993469 203.41553406 119.13247681 204.01596069 C123.74769213 212.1020964 128.41606336 220.15558097 133.125 228.1875 C138.54963146 237.44051231 143.81674912 246.77397935 149.03613281 256.14404297 C152.62266142 262.57217476 156.28110564 268.94698014 160.04101562 275.27490234 C164.02218786 281.9927311 167.88498855 288.77747018 171.75 295.5625 C177.45269214 305.57262167 183.20537472 315.55088476 189.04394531 325.48266602 C193.80445123 333.59984446 198.38338977 341.79269293 203 350 C334.67 350.33 466.34 350.66 602 351 C600.54877547 354.62806134 599.12455815 357.74228784 597.234375 361.11328125 C596.40474243 362.59550171 596.40474243 362.59550171 595.55834961 364.10766602 C594.96159424 365.16526123 594.36483887 366.22285645 593.75 367.3125 C593.12810791 368.41972412 592.50621582 369.52694824 591.86547852 370.66772461 C587.06605144 379.18346073 582.13828032 387.62055004 577.18261719 396.04614258 C572.56541136 403.93676946 568.20516721 411.94816688 563.88989258 420.00683594 C559.5661033 428.04447353 555.00441137 435.92331968 550.37329102 443.78686523 C545.28683486 452.44739803 540.39696722 461.2091391 535.5378418 469.9987793 C531.54095283 477.22865202 527.51123181 484.43814622 523.4375 491.625 C518.91125125 499.61049683 514.41480026 507.6119566 509.9375 515.625 C505.15853224 524.17351658 500.33557056 532.69501162 495.46630859 541.19238281 C491.81020191 547.57452334 488.17955661 553.97065036 484.5625 560.375 C484.02012695 561.335271 483.47775391 562.29554199 482.91894531 563.28491211 C480.75136969 567.12383647 478.58472204 570.96328314 476.41894531 574.80322266 C474.84237978 577.59831126 473.26517548 580.39303776 471.6875 583.1875 C470.89267212 584.59539795 470.89267212 584.59539795 470.08178711 586.03173828 C466.4605677 592.43772338 462.81166817 598.82749932 459.15258789 605.21191406 C452.46938043 616.8732049 445.87639291 628.57782168 439.36816406 640.33789062 C435.58382605 647.16933193 431.75747419 653.97388035 427.875 660.75 C427.40328369 661.57757812 426.93156738 662.40515625 426.44555664 663.2578125 C423.7793117 667.92839447 421.07313514 672.57213251 418.33203125 677.19921875 C417.11708147 679.27858388 415.90223549 681.35800967 414.6875 683.4375 C413.81424072 684.88624512 413.81424072 684.88624512 412.92333984 686.36425781 C412.39562988 687.27401367 411.86791992 688.18376953 411.32421875 689.12109375 C410.85072998 689.9195874 410.37724121 690.71808105 409.8894043 691.54077148 C408.40688983 695.63996671 409.42620145 698.74349396 411.19238281 702.61108398 C411.69092773 703.48063721 412.18947266 704.35019043 412.703125 705.24609375 C413.54520508 706.73109375 413.54520508 706.73109375 414.40429688 708.24609375 C415.01337891 709.29925781 415.62246094 710.35242187 416.25 711.4375 C416.87970703 712.54351563 417.50941406 713.64953125 418.15820312 714.7890625 C419.46450825 717.08261524 420.7744375 719.37410744 422.08789062 721.66357422 C424.91477292 726.59618064 427.70622479 731.54859596 430.5 736.5 C431.57416857 738.39846589 432.64838773 740.29690316 433.72265625 742.1953125 C438.92216281 751.39479992 444.0758071 760.62001887 449.23388672 769.84277344 C452.15398137 775.06293711 455.07713566 780.28138679 458 785.5 C459.16668154 787.58332501 460.3333482 789.66665834 461.5 791.75 C462.0775 792.78125 462.655 793.8125 463.25 794.875 C468.5 804.25 468.5 804.25 470.25024414 807.37548828 C471.41603752 809.45722732 472.58189032 811.53893309 473.74780273 813.62060547 C476.6783206 818.85305923 479.60777916 824.08610086 482.53515625 829.3203125 C488.14672415 839.35144606 493.77156769 849.37446046 499.4375 859.375 C504.81602438 868.86980071 510.1207389 878.40438265 515.41162109 887.94824219 C519.95426559 896.13552577 524.54299405 904.29548193 529.15844727 912.44189453 C536.07682609 924.65651359 542.9188439 936.91389516 549.77050781 949.16601562 C555.99194386 960.28970968 562.22197534 971.40812405 568.5 982.5 C573.5818564 991.47851216 578.63889839 1000.4706007 583.6706543 1009.47729492 C586.42293224 1014.4033367 589.18061236 1019.32596214 591.96305847 1024.23504639 C592.94827117 1025.97374033 593.93130337 1027.71366924 594.91430664 1029.45361328 C596.1544922 1031.64814355 597.39831623 1033.84062268 598.64624023 1036.03076172 C599.20255127 1037.01705566 599.7588623 1038.00334961 600.33203125 1039.01953125 C600.82421143 1039.88682861 601.3163916 1040.75412598 601.82348633 1041.64770508 C602.90157933 1043.80321993 603.46348479 1045.66886837 604 1048 C602.73521838 1047.98950402 602.73521838 1047.98950402 601.44488561 1047.97879601 C551.4501875 1047.56696286 501.45610791 1047.28055886 451.45982423 1047.15661436 C445.45433338 1047.14161802 439.44884575 1047.12557569 433.44335938 1047.10888672 C432.2477952 1047.10558188 431.05223102 1047.10227705 429.82043763 1047.09887207 C410.47160779 1047.04289369 391.12427631 1046.90222004 371.77617054 1046.7301383 C351.91714987 1046.55540178 332.05925086 1046.47193016 312.19945395 1046.47284317 C299.94757591 1046.47053964 287.70035278 1046.39740902 275.44955875 1046.23310024 C267.04394424 1046.12718912 258.64104116 1046.11008741 250.234933 1046.16213673 C245.3856028 1046.18956039 240.54459935 1046.17850031 235.69641685 1046.06169319 C216.8951077 1044.83522317 216.8951077 1044.83522317 200.0963769 1051.37529755 C195.35823447 1057.0638823 192.48852582 1063.2827944 190.02726007 1070.21945953 C188.69199387 1073.83369686 186.9198899 1076.85726706 184.87890625 1080.1171875 C183.77284536 1082.03611715 182.66736143 1083.95537949 181.5625 1085.875 C180.64319702 1087.46997314 180.64319702 1087.46997314 179.70532227 1089.09716797 C177.80295539 1092.39777086 175.9013629 1095.69881867 174 1099 C166.12337411 1112.67554314 158.22879908 1126.33960958 150.26708984 1139.96582031 C143.46412377 1151.61659185 136.73357814 1163.30903744 130 1175 C122.12337411 1188.67554314 114.22879908 1202.33960958 106.26708984 1215.96582031 C100.10080946 1226.52620282 93.9950405 1237.12126766 87.89111328 1247.71777344 C84.13971976 1254.22871257 80.38309006 1260.73663194 76.62744141 1267.24511719 C73.48817754 1272.68585336 70.35018503 1278.12731477 67.21484375 1283.5703125 C60.59858883 1295.05306897 53.95609989 1306.51960901 47.26928711 1317.96142578 C42.98755029 1325.29312571 38.73793815 1332.64290876 34.5 1340 C24.4666429 1357.41189781 14.41242017 1374.81124289 4 1392 C1.15386101 1389.32628492 -0.91952744 1386.76484271 -2.85546875 1383.37890625 C-3.3865625 1382.45851563 -3.91765625 1381.538125 -4.46484375 1380.58984375 C-5.31755859 1379.09130859 -5.31755859 1379.09130859 -6.1875 1377.5625 C-7.44088148 1375.38641641 -8.69481187 1373.21064891 -9.94921875 1371.03515625 C-10.27618744 1370.46612579 -10.60315613 1369.89709534 -10.94003296 1369.31082153 C-14.39568732 1363.29796828 -17.90628218 1357.31773949 -21.41983032 1351.33859253 C-23.22964016 1348.25805536 -25.03678433 1345.17595611 -26.84375 1342.09375 C-27.37377373 1341.18972694 -27.37377373 1341.18972694 -27.914505 1340.2674408 C-31.28509784 1334.51673357 -34.64372735 1328.75907525 -38 1323 C-45.25318452 1310.55539168 -52.53897892 1298.12998774 -59.82666016 1285.70556641 C-63.73872491 1279.03583463 -67.64848665 1272.36475247 -71.55865479 1265.69390869 C-72.61851561 1263.88577428 -73.67839216 1262.07764909 -74.73828125 1260.26953125 C-75.088302 1259.67241333 -75.43832275 1259.07529541 -75.7989502 1258.46008301 C-77.95362852 1254.78448439 -80.10886173 1251.10921173 -82.26449585 1247.43417358 C-89.75737994 1234.65986363 -97.24122541 1221.88046149 -104.69873047 1209.08544922 C-111.3874288 1197.61341025 -118.1079212 1186.1600251 -124.82666016 1174.70556641 C-128.03234269 1169.24015517 -131.23637859 1163.77377869 -134.44052124 1158.3074646 C-136.21027838 1155.28826922 -137.98014478 1152.26913789 -139.75 1149.25 C-140.45833386 1148.04166697 -141.16666719 1146.83333364 -141.875 1145.625 C-142.225625 1145.026875 -142.57625 1144.42875 -142.9375 1143.8125 C-146.12500013 1138.37499978 -146.12500013 1138.37499978 -147.18745422 1136.56257629 C-147.89593806 1135.35398742 -148.60442398 1134.14539978 -149.31291199 1132.93681335 C-151.08145979 1129.91989977 -152.84997154 1126.90296506 -154.6184082 1123.88598633 C-157.83308804 1118.40177761 -161.04804858 1112.91773432 -164.264328 1107.4344635 C-166.07222685 1104.35224487 -167.87989498 1101.26989096 -169.6875 1098.1875 C-170.03930328 1097.58763275 -170.39110657 1096.9877655 -170.75357056 1096.36972046 C-176.30576079 1086.9016149 -181.84240434 1077.42453795 -187.36010742 1067.9362793 C-187.88451416 1067.03562744 -188.4089209 1066.13497559 -188.94921875 1065.20703125 C-189.70017822 1063.91659912 -189.70017822 1063.91659912 -190.46630859 1062.60009766 C-192.56696814 1059.03880759 -194.73276096 1055.51796977 -196.90942383 1052.00268555 C-198 1050 -198 1050 -198 1048 C-330.66 1048 -463.32 1048 -600 1048 C-598.49435603 1044.23589007 -596.96798631 1040.96459936 -595.015625 1037.44921875 C-594.4175 1036.37091797 -593.819375 1035.29261719 -593.203125 1034.18164062 C-592.55230712 1033.01680202 -591.90125939 1031.85209181 -591.25 1030.6875 C-590.75113281 1029.79188354 -590.75113281 1029.79188354 -590.2421875 1028.87817383 C-585.04061477 1019.54090407 -579.70122293 1010.2910275 -574.28125 1001.07861328 C-569.81961368 993.47046824 -565.51205193 985.78334983 -561.25 978.0625 C-556.86056243 970.11259847 -552.4177203 962.21264833 -547.76757812 954.41259766 C-544.1488383 948.316709 -540.69802506 942.13120087 -537.25 935.9375 C-532.59028074 927.57013563 -527.84978543 919.25864331 -523 911 C-517.62714433 901.84949581 -512.40727484 892.62331487 -507.24780273 883.35107422 C-503.27184365 876.22371733 -499.19836002 869.16060908 -495.0625 862.125 C-490.08266605 853.65034985 -485.24910897 845.10599823 -480.5 836.5 C-475.19787678 826.89186858 -469.76039135 817.37821068 -464.19921875 807.91796875 C-460.04099732 800.82838852 -455.9963387 793.68193905 -452 786.5 C-447.42433427 778.27797099 -442.76417548 770.11425646 -438 762 C-432.59364482 752.78953672 -427.32800367 743.50868837 -422.12915039 734.1796875 C-417.802467 726.41820596 -413.41859175 718.69145485 -408.99365234 710.9855957 C-408.09671578 709.42257765 -407.20395078 707.85715635 -406.31591797 706.2890625 C-405.40662338 704.70732853 -404.47152504 703.14025001 -403.51611328 701.5859375 C-403.04802246 700.80476563 -402.57993164 700.02359375 -402.09765625 699.21875 C-401.67105713 698.52716797 -401.24445801 697.83558594 -400.80493164 697.12304688 C-399.73336982 694.29674976 -400.09449584 692.86715744 -401 690 C-402.2619802 687.36081816 -402.2619802 687.36081816 -403.88671875 684.66796875 C-404.48814697 683.63462402 -405.0895752 682.6012793 -405.70922852 681.53662109 C-406.36205811 680.43141113 -407.0148877 679.32620117 -407.6875 678.1875 C-408.36906806 677.02203277 -409.04996625 675.85617357 -409.73022461 674.68994141 C-411.13048155 672.29186042 -412.53468172 669.89616 -413.94238281 667.50244141 C-415.84241265 664.27083782 -417.73156337 661.03300379 -419.6171875 657.79296875 C-423.07145649 651.85807484 -426.5348376 645.92853872 -430 640 C-437.83575666 626.59382119 -445.64037711 613.17079317 -453.39208984 599.71582031 C-459.88499878 588.4520275 -466.43942556 577.22447236 -473 566 C-475.31332038 562.04214526 -477.62595749 558.08389337 -479.9375 554.125 C-480.51395264 553.13781982 -481.09040527 552.15063965 -481.68432617 551.13354492 C-485.94201655 543.83388651 -490.16196052 536.51299394 -494.375 529.1875 C-499.49286212 520.29102939 -504.68657508 511.44353286 -509.9375 502.625 C-516.11909609 492.23961775 -522.15853218 481.78238963 -528.13598633 471.27880859 C-534.10863795 460.7861767 -540.18195851 450.3543732 -546.28222656 439.93554688 C-549.19360701 434.96021451 -552.09636412 429.97985472 -555 425 C-558.48616149 419.02219697 -561.97324226 413.04494004 -565.46484375 407.0703125 C-572.25495408 395.44717948 -579.00459671 383.80191757 -585.71289062 372.13134766 C-589.57400663 365.42762318 -593.48410312 358.75885519 -597.5637207 352.18530273 C-600 348.21132765 -600 348.21132765 -600 346 C-400.02 345.505 -400.02 345.505 -196 345 C-192.04 337.74 -188.08 330.48 -184 323 C-181.75067809 319.08679614 -179.49430744 315.19027251 -177.1875 311.3125 C-172.15961716 302.77862711 -167.28400417 294.17282483 -162.5 285.5 C-157.22364045 275.93698094 -151.80760926 266.47207624 -146.26953125 257.05859375 C-141.89737072 249.60135815 -137.6760561 242.06856352 -133.5 234.5 C-128.22351405 224.93704918 -122.80761118 215.4720795 -117.26953125 206.05859375 C-112.89737072 198.60135815 -108.6760561 191.06856352 -104.5 183.5 C-99.77369072 174.93417349 -94.96066973 166.43229846 -90 158 C-84.3343635 148.36681523 -78.86953085 138.63370614 -73.46264648 128.85327148 C-68.27082903 119.4664817 -62.9755142 110.14352078 -57.63232422 100.84228516 C-54.45779154 95.31462894 -51.29031432 89.78293826 -48.125 84.25 C-47.78544281 83.65667877 -47.44588562 83.06335754 -47.09603882 82.45205688 C-42.30579016 74.07881873 -37.57089695 65.67662932 -32.875 57.25 C-27.73599736 48.03302533 -22.47681288 38.89355365 -17.13964844 29.79003906 C-11.34609023 19.90574789 -5.66222107 9.95997576 0 0 Z " fill="#0C3FB4" transform="translate(2499,637)"/>
<path d="M0 0 C2.73042037 0.01259743 5.46064791 0.002513 8.19107056 -0.00663757 C14.06222002 -0.0144855 19.93086016 0.03237671 25.80137825 0.11693001 C34.28859335 0.2390918 42.77460107 0.2779258 51.2626 0.29674988 C65.03464053 0.32954101 78.80534479 0.42925588 92.57666016 0.57128906 C105.95029028 0.70907679 119.32355683 0.81520122 132.69775391 0.87890625 C133.9353038 0.88481753 133.9353038 0.88481753 135.19785471 0.89084823 C139.33700445 0.91042447 143.47615676 0.92937993 147.61531079 0.94802678 C181.92801441 1.10340768 216.2391314 1.36749554 250.55053711 1.70288086 C252.47220828 5.06286057 254.3933741 8.42312896 256.31445312 11.78344727 C256.85514687 12.72881851 257.39584061 13.67418976 257.95291901 14.64820862 C261.83429224 21.43823445 265.68044649 28.2461789 269.48803711 35.07788086 C274.01060885 43.17209561 278.54795203 51.25756118 283.11303711 59.32788086 C283.64606445 60.27018555 284.1790918 61.21249023 284.72827148 62.18334961 C286.33530383 65.02341405 287.94282156 67.86320312 289.55053711 70.70288086 C296.83674024 83.57236442 304.09808013 96.45505089 311.31762695 109.36206055 C317.36117138 120.16164812 323.45334218 130.93352012 329.55053711 141.70288086 C339.79874158 159.80409168 349.98083965 177.941464 360.12475586 196.10131836 C365.81377578 206.28093159 371.52106915 216.44927958 377.30053711 226.57788086 C378.05294678 227.89804199 378.05294678 227.89804199 378.82055664 229.24487305 C379.28316895 230.0534375 379.74578125 230.86200195 380.22241211 231.69506836 C380.62556641 232.40002441 381.0287207 233.10498047 381.4440918 233.83129883 C382.42419601 235.48917148 383.48223205 237.10042328 384.55053711 238.70288086 C384.21825033 242.68578723 382.70378755 245.55458114 380.69897461 248.96459961 C380.10286377 249.98730957 379.50675293 251.01001953 378.89257812 252.0637207 C378.24345459 253.16151855 377.59433105 254.25931641 376.92553711 255.39038086 C376.2450085 256.55351091 375.56525304 257.71709362 374.88623047 258.88110352 C373.47609515 261.29695659 372.06266371 263.71083295 370.64672852 266.12329102 C367.44031068 271.59165337 364.27777852 277.08533005 361.11303711 282.57788086 C360.49799316 283.64353271 359.88294922 284.70918457 359.24926758 285.80712891 C354.32194291 294.34846409 349.4276066 302.90843226 344.54055786 311.47283936 C339.1216433 320.96843319 333.66814836 330.4436652 328.19726562 339.90942383 C323.260047 348.45777271 318.36370775 357.0290547 313.47491455 365.60513306 C308.84178024 373.72985004 304.15668924 381.8223323 299.42553711 389.89038086 C294.00080733 399.14333404 288.73378661 408.47686268 283.5144043 417.84692383 C279.9365356 424.25953447 276.28929702 430.62047908 272.53588867 436.93164062 C267.54953438 445.34026216 262.73812325 453.85051239 257.90649414 462.34863281 C257.56752106 462.94393295 257.22854797 463.53923309 256.87930298 464.15257263 C255.94786583 465.78846738 255.01771673 467.42509531 254.08764648 469.06176758 C252.97125291 470.97999275 251.78166198 472.85619356 250.55053711 474.70288086 C248.55724275 475.10654438 248.55724275 475.10654438 246.05435753 475.14744377 C245.10230883 475.17006779 244.15026013 475.1926918 243.16936147 475.21600139 C242.11609029 475.2256801 241.06281911 475.23535881 239.97763062 475.24533081 C238.86423392 475.26694436 237.75083722 475.28855791 236.60370123 475.31082642 C232.84697737 475.37936283 229.0903136 475.42582006 225.33325195 475.47192383 C223.33297288 475.50421764 221.33269375 475.53652842 219.3324381 475.57024132 C194.10720784 475.9939168 168.87674599 476.18964857 143.64862633 476.34820366 C140.3610447 476.36922972 137.07346563 476.39061065 133.78588867 476.41235352 C132.96879758 476.41773939 132.15170649 476.42312527 131.30985506 476.42867436 C118.0981514 476.51871289 104.8900478 476.71284273 91.68022363 476.94841288 C78.1064494 477.18846077 64.53453157 477.32533457 50.95867503 477.36528122 C43.33959189 477.39044268 35.72693029 477.4617552 28.10996628 477.64928818 C-21.39264544 478.82982345 -21.39264544 478.82982345 -30.18118405 470.4729104 C-35.14576282 464.71999834 -37.63355382 458.15084773 -39.5524044 450.83655357 C-40.76461807 446.6019569 -42.78893999 443.30422557 -45.27368164 439.71459961 C-45.92208008 438.65176758 -46.57047852 437.58893555 -47.23852539 436.49389648 C-47.86500977 435.46973633 -48.49149414 434.44557617 -49.13696289 433.39038086 C-54.13444366 425.1961357 -59.0869409 416.9781008 -63.94946289 408.70288086 C-68.75083529 400.5323615 -73.6426238 392.42023306 -78.57446289 384.32788086 C-84.77039098 374.16092613 -90.88550489 363.94906998 -96.94946289 353.70288086 C-102.88991743 343.66587203 -108.87780478 333.661083 -114.94946289 323.70288086 C-121.42724506 313.07858958 -127.80356743 302.39738351 -134.14135742 291.6890564 C-141.94428841 278.50917253 -149.87147527 265.4073183 -157.84985352 252.33300781 C-158.37772461 251.46506592 -158.9055957 250.59712402 -159.44946289 249.70288086 C-160.03405273 248.88843506 -160.61864258 248.07398926 -161.22094727 247.23486328 C-162.84112971 243.89565182 -162.45909737 242.23502262 -161.44946289 238.70288086 C-160.24121094 236.16772461 -160.24121094 236.16772461 -158.71118164 233.64038086 C-158.14463867 232.6903418 -157.5780957 231.74030273 -156.99438477 230.76147461 C-156.07496094 229.2474707 -156.07496094 229.2474707 -155.13696289 227.70288086 C-153.84658063 225.53777464 -152.55887084 223.37107367 -151.27368164 221.20288086 C-150.62705566 220.11233398 -149.98042969 219.02178711 -149.31420898 217.89819336 C-146.5858114 213.22298157 -144.01009235 208.47144438 -141.44946289 203.70288086 C-137.3250218 196.04998042 -133.04591688 188.50790153 -128.63696289 181.01538086 C-123.57642649 172.41443315 -118.65249228 163.74899622 -113.82446289 155.01538086 C-107.99701446 144.47387645 -102.08156818 133.98937212 -96.08178711 123.54516602 C-92.90725443 118.0175098 -89.73977721 112.48581912 -86.57446289 106.95288086 C-86.2349057 106.35955963 -85.89534851 105.7662384 -85.54550171 105.15493774 C-80.75525415 96.78170151 -76.0201855 88.37960586 -71.32446289 79.95288086 C-66.25694045 70.86011776 -61.05509202 61.85564615 -55.78027344 52.88183594 C-50.65895247 44.13610733 -45.7315082 35.28810693 -40.86181641 26.40063477 C-39.72590564 24.3361229 -38.56202284 22.28667863 -37.36668301 20.25599766 C-35.98812876 17.83646853 -34.97130487 15.47017354 -34.05237675 12.84406185 C-27.9243187 -2.68636009 -14.59327192 -0.31528489 0 0 Z " fill="#FEFEFE" transform="translate(2390.449462890625,1096.297119140625)"/>
<path d="M0 0 C2.74454525 2.45087122 4.32102373 5.10394701 6.08203125 8.3203125 C6.97450562 9.93993896 6.97450562 9.93993896 7.88500977 11.59228516 C8.52751284 12.76985332 9.17000941 13.94742503 9.8125 15.125 C10.48369375 16.34587034 11.15549647 17.56640608 11.82788086 18.78662109 C12.86445247 20.6679452 13.90063635 22.54947173 14.93495178 24.43203735 C18.27732152 30.51516499 21.66539125 36.57228584 25.0625 42.625 C26.22009708 44.69007894 27.37764913 46.75518313 28.53515625 48.8203125 C29.10637207 49.83899414 29.67758789 50.85767578 30.26611328 51.90722656 C32.59494038 56.06120878 34.92170728 60.21634303 37.24829102 64.37158203 C38.41396565 66.45338757 39.57981787 68.53509368 40.74584961 70.61669922 C43.69017227 75.87309519 46.63227226 81.13071461 49.5703125 86.390625 C50.75506207 88.51049842 51.9399567 90.63029077 53.125 92.75 C53.69822998 93.77561035 54.27145996 94.8012207 54.86206055 95.85791016 C59.30158157 103.78666154 63.80195056 111.67954312 68.35791016 119.54199219 C68.82374512 120.35055664 69.28958008 121.15912109 69.76953125 121.9921875 C70.17792236 122.69714355 70.58631348 123.40209961 71.00708008 124.12841797 C72 126 72 126 73 129 C25.15 129 -22.7 129 -72 129 C-70.48664505 125.21661262 -68.950629 121.94273428 -66.98046875 118.4140625 C-66.37710693 117.33044434 -65.77374512 116.24682617 -65.15209961 115.13037109 C-64.49733755 113.96185552 -63.8424683 112.79339999 -63.1875 111.625 C-62.50835327 110.40847286 -61.8294008 109.19183725 -61.15063477 107.97509766 C-56.41139015 99.48758147 -51.63571069 91.02063088 -46.84423828 82.5625 C-42.89703496 75.59444099 -38.97344072 68.61347342 -35.0625 61.625 C-34.48177734 60.58730469 -33.90105469 59.54960938 -33.30273438 58.48046875 C-31.53480226 55.32051035 -29.76731386 52.16030422 -28 49 C-20.91156859 36.32449276 -13.81757403 23.65214358 -6.6875 11 C-6.1298999 10.00790527 -5.5722998 9.01581055 -4.99780273 7.99365234 C-4.23125366 6.63554443 -4.23125366 6.63554443 -3.44921875 5.25 C-2.77379028 4.05117188 -2.77379028 4.05117188 -2.0847168 2.828125 C-1 1 -1 1 0 0 Z " fill="#FCFDFE" transform="translate(2503,856)"/>
<path d="M0 0 C3.41717752 3.11281353 5.72312773 6.5451612 8.01953125 10.51171875 C8.39458298 11.14797684 8.7696347 11.78423492 9.15605164 12.43977356 C10.38034402 14.51918472 11.59630659 16.60334356 12.8125 18.6875 C13.66987282 20.14624504 14.52795378 21.60457409 15.38671875 23.0625 C16.68931001 25.27408917 17.99147923 27.48591335 19.29141235 29.69906616 C22.98721924 35.99066091 26.73415733 42.25003889 30.5 48.5 C34.53859728 55.21327029 38.56112721 61.93563762 42.5546875 68.67578125 C42.94799759 69.33953262 43.34130768 70.003284 43.74653625 70.68714905 C45.35696704 73.40534213 46.96722485 76.12363703 48.57662964 78.84243774 C52.98226188 86.28253011 57.41247088 93.70580459 61.91796875 101.0859375 C62.31216003 101.73207504 62.70635132 102.37821259 63.11248779 103.04393005 C64.98438807 106.11012724 66.86123879 109.17313836 68.74560547 112.23168945 C69.40834473 113.31409912 70.07108398 114.39650879 70.75390625 115.51171875 C71.62511108 116.92650513 71.62511108 116.92650513 72.51391602 118.36987305 C74 121 74 121 76 126 C27.49 126 -21.02 126 -71 126 C-69.5698626 121.7095878 -68.49964515 118.83587037 -66.26953125 115.11328125 C-65.72167969 114.18902344 -65.17382812 113.26476563 -64.609375 112.3125 C-64.01640625 111.3225 -63.4234375 110.3325 -62.8125 109.3125 C-57.56826381 100.44854153 -52.46917662 91.52097679 -47.5 82.5 C-42.22711439 72.94183133 -36.81401352 63.48198412 -31.27832031 54.07397461 C-26.8180066 46.46716491 -22.51140259 38.78162787 -18.25 31.0625 C-13.95465795 23.28528573 -9.63237403 15.53171452 -5.125 7.875 C-4.71411133 7.17640869 -4.30322266 6.47781738 -3.87988281 5.75805664 C-1.13866753 1.13866753 -1.13866753 1.13866753 0 0 Z " fill="#FCFDFE" transform="translate(2841,1446)"/>
<path d="M0 0 C47.85 0 95.7 0 145 0 C143.66122441 3.34693897 142.48035432 6.08593741 140.70703125 9.1328125 C140.24949463 9.92478027 139.79195801 10.71674805 139.32055664 11.53271484 C138.82289795 12.38816895 138.32523926 13.24362305 137.8125 14.125 C132.98286025 22.49854809 128.24394235 30.9177335 123.5625 39.375 C118.36608776 48.75575944 113.12813124 58.11105844 107.84179688 67.44140625 C103.89577544 74.4083745 99.97318586 81.38813974 96.0625 88.375 C95.20229248 89.90979004 95.20229248 89.90979004 94.32470703 91.47558594 C91.56770803 96.39764231 88.81787258 101.32338285 86.08851624 106.26083374 C85.12172447 108.00892054 84.15255213 109.75569006 83.18334961 111.50244141 C81.96123529 113.70553251 80.7431191 115.91084754 79.52954102 118.11865234 C78.97967529 119.10816895 78.42980957 120.09768555 77.86328125 121.1171875 C77.38157471 121.98972168 76.89986816 122.86225586 76.40356445 123.76123047 C75.10496259 125.83257837 73.80551765 127.36699254 72 129 C63.83329315 114.78194929 55.77805462 100.50421247 47.78222656 86.18945312 C44.8586656 80.95748046 41.92906479 75.72889272 39 70.5 C37.83330359 68.41668332 36.66663694 66.33334998 35.5 64.25 C34.9225 63.21875 34.345 62.1875 33.75 61.125 C28.5 51.75 28.5 51.75 26.74755859 48.62036133 C25.58934759 46.55231231 24.43082268 44.48443905 23.27197266 42.41674805 C20.22323998 36.97601871 17.18119478 31.53168392 14.1484375 26.08203125 C13.51679688 24.94894531 12.88515625 23.81585937 12.234375 22.6484375 C11.02662584 20.48159342 9.82078617 18.31368352 8.6171875 16.14453125 C5.29262017 10.16896852 5.29262017 10.16896852 1.6015625 4.41796875 C0 2 0 2 0 0 Z " fill="#FCFDFE" transform="translate(2431,1682)"/>
<path d="M0 0 C0.66 0 1.32 0 2 0 C2.31001953 0.55010742 2.62003906 1.10021484 2.93945312 1.66699219 C11.55563159 16.94910785 20.23886688 32.1922767 28.95166016 47.41943359 C31.97157639 52.69769076 34.98800197 57.97794217 38.00466919 63.25805664 C38.99829239 64.99701149 39.99215169 66.73583118 40.98608398 68.47460938 C44.0446428 73.82552703 47.10184027 79.17720652 50.15374756 84.53192139 C51.55104537 86.98342437 52.94899041 89.43455776 54.34716797 91.88555908 C55.02768825 93.07861136 55.70802934 94.27176587 56.38818359 95.46502686 C60.92870638 103.42842662 65.51288566 111.36294581 70.25927734 119.20581055 C73 123.78587596 73 123.78587596 73 126 C24.49 126 -24.02 126 -74 126 C-72.45749056 122.1437264 -70.93532348 119.00937867 -68.83203125 115.484375 C-68.19418701 114.4116333 -67.55634277 113.3388916 -66.89916992 112.23364258 C-66.20369873 111.07237721 -65.50813966 109.91116446 -64.8125 108.75 C-64.08736338 107.53361599 -63.36251447 106.31706042 -62.63793945 105.1003418 C-57.40162679 96.31470579 -52.13513469 87.54701028 -46.86523438 78.78149414 C-41.23507464 69.41085941 -35.65520038 60.01072937 -30.07922363 50.60778809 C-24.75486018 41.62966858 -19.41887279 32.65912199 -14.02514648 23.72241211 C-11.68572211 19.83982961 -9.38036145 15.9415771 -7.12109375 12.01171875 C-6.42705444 10.80986938 -6.42705444 10.80986938 -5.71899414 9.58374023 C-4.845772 8.0674586 -3.97870626 6.54760882 -3.11889648 5.02368164 C-2.13426637 3.31620057 -1.07449329 1.65240801 0 0 Z " fill="#FDFDFE" transform="translate(2164,1444)"/>
<path d="M0 0 C48.51 0 97.02 0 147 0 C145.43856872 3.90357819 143.84459628 7.1937461 141.76171875 10.8046875 C141.11299805 11.93382568 140.46427734 13.06296387 139.79589844 14.22631836 C139.452323 14.82088837 139.10874756 15.41545837 138.75476074 16.02804565 C137.30284167 18.54067273 135.85793922 21.05730909 134.41268921 23.57377625 C133.67494345 24.85824995 132.93684365 26.14252036 132.19839478 27.42658997 C128.85257545 33.24685657 125.54605898 39.08891869 122.25 44.9375 C116.75885103 54.67005931 111.22487581 64.37746883 105.67333984 74.07568359 C102.79105228 79.11274814 99.91254195 84.15197138 97.03359985 89.19094849 C95.33504198 92.16383851 93.63626105 95.13660107 91.9375 98.109375 C91.27343641 99.27148375 90.6093739 100.43359312 89.9453125 101.59570312 C85.296875 109.73046875 80.6484375 117.86523438 76 126 C75.34 126 74.68 126 74 126 C73.54753906 125.16984375 73.09507812 124.3396875 72.62890625 123.484375 C67.62796101 114.41168424 62.33306752 105.52965257 56.9375 96.6875 C51.27632066 87.40801337 45.65715503 78.10734449 40.125 68.75 C39.47934082 67.65824463 38.83368164 66.56648926 38.16845703 65.44165039 C36.47452574 62.57574778 34.78131361 59.70942281 33.08843994 56.84289551 C29.50045809 50.76789276 25.90883494 44.69506174 22.3125 38.625 C21.91213531 37.94874573 21.51177063 37.27249146 21.09927368 36.57574463 C15.41150603 26.97416069 9.63602213 17.43739807 3.65551758 8.01416016 C2.9230481 6.85086182 2.9230481 6.85086182 2.17578125 5.6640625 C1.75208252 4.99842285 1.32838379 4.3327832 0.8918457 3.64697266 C0 2 0 2 0 0 Z " fill="#FDFDFE" transform="translate(2090,1097)"/>
<path d="M0 0 C1.57955727 0.00128403 1.57955727 0.00128403 3.19102478 0.00259399 C16.31486663 0.0140491 29.43868402 0.03421826 42.5625 0.0625 C36.3519316 12.68666401 36.3519316 12.68666401 32.92578125 18.234375 C31.95064575 19.82475586 31.95064575 19.82475586 30.95581055 21.44726562 C30.26914307 22.55779297 29.58247559 23.66832031 28.875 24.8125 C27.36423745 27.27423983 25.85769402 29.73854974 24.3515625 32.203125 C23.96278427 32.83855225 23.57400604 33.47397949 23.17344666 34.12866211 C18.63050174 41.56588148 14.18958805 49.06329335 9.75 56.5625 C8.14472446 59.27224991 6.53916397 61.98183094 4.93359375 64.69140625 C4.55193558 65.33564041 4.1702774 65.97987457 3.77705383 66.64363098 C-0.27547796 73.48167521 -4.36248906 80.29877094 -8.4609375 87.109375 C-10.74568384 90.90629365 -13.01883168 94.71001002 -15.2890625 98.515625 C-15.95647461 99.63267822 -16.62388672 100.74973145 -17.31152344 101.90063477 C-18.60559792 104.06674115 -19.89802837 106.23383092 -21.18847656 108.40209961 C-24.77819751 114.40424131 -28.49030099 120.28870062 -32.4375 126.0625 C-35.21089447 123.58329295 -36.84538797 120.85727299 -38.66796875 117.62890625 C-39.29783691 116.51942627 -39.92770508 115.40994629 -40.57666016 114.2668457 C-41.25950307 113.05293255 -41.94228124 111.83898298 -42.625 110.625 C-43.3385257 109.36454189 -44.05256423 108.10437397 -44.76708984 106.84448242 C-46.25305285 104.22357081 -47.73678953 101.60141638 -49.21923828 98.97851562 C-51.32015049 95.26510487 -53.43625164 91.56057125 -55.55859375 87.859375 C-55.89093521 87.27967453 -56.22327667 86.69997406 -56.56568909 86.10270691 C-57.23224771 84.94007728 -57.89881768 83.77745416 -58.56539917 82.61483765 C-63.95418154 73.2119707 -69.28650351 63.77919597 -74.5625 54.3125 C-79.76739531 44.97493707 -85.10387185 35.72180085 -90.50878906 26.4987793 C-93.98486749 20.56387779 -97.4326946 14.61531905 -100.8125 8.625 C-101.18802002 7.96234131 -101.56354004 7.29968262 -101.95043945 6.61694336 C-104.4375 2.18542088 -104.4375 2.18542088 -104.4375 1.0625 C-69.62234152 0.17198982 -34.82489371 -0.02850994 0 0 Z " fill="#FDFDFE" transform="translate(2874.4375,1094.9375)"/>
</svg>
