<?xml version="1.0" encoding="UTF-8"?>
<svg version="1.1" xmlns="http://www.w3.org/2000/svg" width="5000" height="2639">
<path d="M0 0 C1650 0 3300 0 5000 0 C5000 870.87 5000 1741.74 5000 2639 C3350 2639 1700 2639 0 2639 C0 1768.13 0 897.26 0 0 Z " fill="#FEFEFE" transform="translate(0,0)"/>
<path d="M0 0 C1.376271 0.00246686 2.75254265 0.00458942 4.1288147 0.00637817 C59.87894223 0.09362838 59.87894223 0.09362838 71.9375 3.25 C73.33792382 3.42189925 74.74230522 3.56337663 76.1484375 3.6796875 C76.96957031 3.75106934 77.79070313 3.82245117 78.63671875 3.89599609 C79.51972656 3.97156738 80.40273437 4.04713867 81.3125 4.125 C107.95163089 6.55642276 133.80217926 11.6656665 159.86572266 17.5625 C162.54665148 18.16252349 165.23012891 18.74441992 167.91796875 19.3125 C189.57312685 23.90365789 210.44821801 30.92886032 231.37695312 38.04443359 C234.13730118 38.97906049 236.90099847 39.89814723 239.671875 40.80078125 C299.91840513 60.98711863 357.57919523 93.29218124 408.9375 130.25 C409.74848145 130.83281738 410.55946289 131.41563477 411.39501953 132.01611328 C425.5384794 142.21753775 439.0814504 153.04683608 452.34594727 164.36132812 C455.76870961 167.27905763 459.24422243 170.12035731 462.75 172.9375 C466.67867422 176.13168295 470.30839272 179.46054268 473.79296875 183.1328125 C475.66874529 184.98467204 477.58888031 186.6896262 479.58691406 188.40600586 C483.78772179 192.07100217 487.7565894 195.92418283 491.69140625 199.87109375 C492.39595444 200.57468521 493.10050262 201.27827667 493.82640076 202.00318909 C495.30403367 203.48014648 496.78042457 204.95834742 498.25561523 206.43774414 C500.49416481 208.68165085 502.73800473 210.92016704 504.98242188 213.15820312 C506.42740404 214.60384618 507.87207592 216.04979945 509.31640625 217.49609375 C510.30732018 218.48397133 510.30732018 218.48397133 511.31825256 219.49180603 C515.18346479 223.37622542 518.86835643 227.36935408 522.44606018 231.52044678 C524.35980757 233.7397304 526.33531801 235.89972047 528.3125 238.0625 C532.13664478 242.3044085 535.78639455 246.65551097 539.375 251.09765625 C541.26770913 253.43859881 543.19000175 255.75249212 545.125 258.05859375 C553.84371993 268.47780391 562.01505189 279.21499639 569.9375 290.25 C570.47149414 290.99314453 571.00548828 291.73628906 571.55566406 292.50195312 C595.16964077 325.45916891 615.66300756 360.06500618 633.9375 396.25 C634.44635742 397.25160156 634.95521484 398.25320313 635.47949219 399.28515625 C649.58402335 427.21528915 660.92153269 456.63090245 670.9375 486.25 C671.2886084 487.28415039 671.6397168 488.31830078 672.00146484 489.38378906 C683.51392133 523.57033353 691.78011817 558.731508 697.9375 594.25 C698.08815918 595.11141602 698.23881836 595.97283203 698.39404297 596.86035156 C700.608677 609.66818797 702.22757667 622.5491666 703.54931641 635.47802734 C703.80915878 638.00291075 704.07975766 640.52670921 704.36083984 643.04931641 C706.88590755 666.24855428 707.23331287 689.41411404 707.24802017 712.7261467 C707.24996258 715.07965805 707.25506509 717.43314628 707.2605896 719.78665161 C707.3095861 748.05082773 706.36382334 776.25194484 702.75 804.3125 C702.64490112 805.14899078 702.53980225 805.98548157 702.43151855 806.84732056 C697.38726159 846.79342592 689.59535384 886.38681076 677.67236328 924.87646484 C677.01694896 926.99338779 676.37794678 929.11423716 675.74609375 931.23828125 C674.52737789 935.25961895 673.24972741 939.25847361 671.9375 943.25 C671.61475098 944.23436035 671.29200195 945.2187207 670.95947266 946.23291016 C662.00522193 973.33497414 651.425924 999.70339443 639.22851562 1025.51220703 C637.95674599 1028.20918599 636.70335676 1030.9140745 635.453125 1033.62109375 C619.74284903 1067.41772723 600.38983888 1099.79307361 578.9375 1130.25 C578.50695313 1130.86214355 578.07640625 1131.47428711 577.6328125 1132.10498047 C559.30063512 1158.11028513 539.46961084 1183.0756027 517.72729492 1206.31665039 C516.33031812 1207.82567499 514.9447491 1209.34526267 513.5637207 1210.86889648 C507.17609165 1217.91460327 500.60377312 1224.74068516 493.8659668 1231.4519043 C492.23693428 1233.07552229 490.61339272 1234.70449603 488.99023438 1236.33398438 C483.47692925 1241.85079613 477.87061473 1247.18308378 471.9375 1252.25 C470.16179779 1253.86967817 468.39041693 1255.49411718 466.625 1257.125 C462.13251362 1261.22199927 457.51842718 1265.11120426 452.78515625 1268.92578125 C450.33863354 1270.9226002 447.94184491 1272.96513743 445.55541992 1275.03295898 C436.39635139 1282.9355488 426.6807156 1290.08961684 416.9375 1297.25 C416.14053711 1297.8363623 415.34357422 1298.42272461 414.52246094 1299.02685547 C404.50578868 1306.37756473 394.36940266 1313.50070329 383.9375 1320.25 C383.24140625 1320.70165527 382.5453125 1321.15331055 381.828125 1321.61865234 C359.89865024 1335.79601889 337.27997029 1348.55115793 313.9375 1360.25 C312.76525879 1360.83813477 311.59301758 1361.42626953 310.38525391 1362.03222656 C283.20085879 1375.61967035 255.19881992 1386.86775425 226.55419922 1396.97363281 C224.36394037 1397.74659577 222.1750483 1398.52346752 219.98876953 1399.30761719 C182.78504412 1412.62996152 143.59577033 1420.20291691 104.625 1426.125 C103.18900452 1426.34328461 103.18900452 1426.34328461 101.72399902 1426.565979 C49.27032868 1434.47350498 -5.24104399 1436.64593251 -58.0625 1431.25 C-58.72864319 1431.1821228 -59.39478638 1431.11424561 -60.08111572 1431.04431152 C-90.78336202 1427.8884949 -120.93037062 1422.90654328 -151.0625 1416.25 C-152.17455811 1416.00660889 -152.17455811 1416.00660889 -153.30908203 1415.75830078 C-184.85057905 1408.81472141 -216.10624345 1399.32278703 -246.0625 1387.25 C-246.90127686 1386.91339355 -247.74005371 1386.57678711 -248.60424805 1386.22998047 C-261.90465721 1380.88224854 -275.06292907 1375.29355622 -288.0625 1369.25 C-289.01463379 1368.80817383 -289.96676758 1368.36634766 -290.94775391 1367.91113281 C-344.34844171 1343.00871893 -395.36349324 1311.21993213 -440.12109375 1272.7578125 C-442.8970394 1270.39106999 -445.71813193 1268.09617969 -448.5625 1265.8125 C-454.36407254 1261.09186092 -459.80467876 1256.02117401 -465.2590332 1250.90991211 C-466.53322882 1249.73714157 -467.82240317 1248.58054648 -469.12182617 1247.43579102 C-476.75085831 1240.70476203 -483.92307864 1233.54119684 -491.10424805 1226.33862305 C-493.25261866 1224.18487478 -495.40630694 1222.03654774 -497.56054688 1219.88867188 C-498.95084168 1218.49771646 -500.34082636 1217.10645097 -501.73046875 1215.71484375 C-502.36293015 1215.08440659 -502.99539154 1214.45396942 -503.64701843 1213.8044281 C-507.44030037 1209.99147541 -511.04813579 1206.06281947 -514.56089783 1201.98971558 C-516.47877515 1199.7677149 -518.45710567 1197.60379341 -520.4375 1195.4375 C-524.26164478 1191.1955915 -527.91139455 1186.84448903 -531.5 1182.40234375 C-533.39270913 1180.06140119 -535.31500175 1177.74750788 -537.25 1175.44140625 C-545.96888172 1165.02200274 -554.13783243 1154.28361139 -562.0625 1143.25 C-562.58585937 1142.52280762 -563.10921875 1141.79561523 -563.6484375 1141.04638672 C-606.96973517 1080.69619063 -640.65455235 1014.32016039 -664.18310547 943.87402344 C-665.02523373 941.36119873 -665.88887693 938.85657469 -666.75390625 936.3515625 C-676.19015792 908.44831424 -682.63180682 879.16757641 -688.0625 850.25 C-688.3095166 848.97060547 -688.5565332 847.69121094 -688.81103516 846.37304688 C-694.04665632 819.08418447 -696.58038926 791.53614565 -698.84686279 763.86209106 C-699.02683298 761.68204741 -699.21742738 759.50288414 -699.41064453 757.32397461 C-700.44571689 744.39297667 -700.30646483 731.40113805 -700.3125 718.4375 C-700.31351212 716.4799025 -700.31351212 716.4799025 -700.31454468 714.48275757 C-700.29560004 691.28974353 -699.44139339 668.32222704 -697.0625 645.25 C-696.97764343 644.4240332 -696.89278687 643.59806641 -696.80535889 642.74707031 C-692.58811541 602.24899967 -685.15887296 562.41786039 -674.5 523.125 C-674.31608704 522.44657043 -674.13217407 521.76814087 -673.94268799 521.06915283 C-669.7134526 505.5367289 -664.85468517 490.24249515 -659.5 475.0625 C-659.2440506 474.33621399 -658.9881012 473.60992798 -658.72439575 472.8616333 C-650.77328666 450.38424219 -641.45253929 428.52264112 -631.32226562 406.94140625 C-630.13458375 404.40400218 -628.96346375 401.85965498 -627.796875 399.3125 C-603.71562745 347.08791274 -570.74759626 298.39647177 -534.0625 254.25 C-533.64000977 253.74114258 -533.21751953 253.23228516 -532.78222656 252.70800781 C-526.95194193 245.70229692 -520.9731601 238.87327106 -514.765625 232.19921875 C-512.77087007 230.04779604 -510.84958993 227.8443578 -508.93823242 225.61865234 C-504.92389024 221.02560585 -500.66541033 216.70874669 -496.34765625 212.40234375 C-495.53308456 211.58681534 -494.71851288 210.77128693 -493.8792572 209.93104553 C-492.16690807 208.21801992 -490.45331158 206.50624035 -488.73852539 204.7956543 C-486.13247985 202.19496448 -483.53181478 199.58898044 -480.93164062 196.98242188 C-479.25813301 195.30957514 -477.58431518 193.63703866 -475.91015625 191.96484375 C-475.1422023 191.19486557 -474.37424835 190.42488739 -473.58302307 189.63157654 C-468.9021557 184.97071329 -464.08676664 180.53759542 -459.0625 176.25 C-457.93338942 175.27627856 -456.80445016 174.30235837 -455.67578125 173.328125 C-452.73724742 170.80718386 -449.79313756 168.292771 -446.84863281 165.77880859 C-445.18367836 164.35372046 -443.52473918 162.92196522 -441.8671875 161.48828125 C-400.06061476 125.49109111 -352.24662304 95.93472726 -303.0625 71.25 C-301.97388672 70.70102051 -300.88527344 70.15204102 -299.76367188 69.58642578 C-286.43113175 62.89831862 -272.93919947 56.79791914 -259.125 51.1875 C-258.45626862 50.91541718 -257.78753723 50.64333435 -257.09854126 50.36300659 C-249.69090238 47.36149268 -242.24863455 44.58563226 -234.64331055 42.12207031 C-231.35388882 41.01055632 -228.24015778 39.64707368 -225.0625 38.25 C-220.79350283 36.72752589 -216.48402376 35.33304507 -212.17236328 33.93701172 C-210.13067615 33.27219945 -208.09460232 32.5921275 -206.05859375 31.91015625 C-169.36541874 19.79420372 -131.31556007 11.49152602 -93.0625 6.25 C-92.38082764 6.15654297 -91.69915527 6.06308594 -90.99682617 5.96679688 C-86.12632477 5.30391038 -81.25198551 4.67566179 -76.375 4.0625 C-75.16787354 3.9075708 -73.96074707 3.7526416 -72.71704102 3.59301758 C-48.53684265 0.68468101 -24.33508437 -0.09379006 0 0 Z " fill="#EF4136" transform="translate(2496.0625,602.75)"/>
<path d="M0 0 C0.33 1.32 0.66 2.64 1 4 C-1.4375 6.75 -1.4375 6.75 -4 9 C-4.66 8.67 -5.32 8.34 -6 8 C-4.02 5.36 -2.04 2.72 0 0 Z " fill="#F04E43" transform="translate(1948,874)"/>
</svg>
