<?xml version="1.0" encoding="UTF-8"?>
<svg version="1.1" xmlns="http://www.w3.org/2000/svg" width="5000" height="2639">
<path d="M0 0 C1650 0 3300 0 5000 0 C5000 870.87 5000 1741.74 5000 2639 C3350 2639 1700 2639 0 2639 C0 1768.13 0 897.26 0 0 Z " fill="#FEFEFE" transform="translate(0,0)"/>
<path d="M0 0 C1650 0 3300 0 5000 0 C5000 291.72 5000 583.44 5000 884 C3350 884 1700 884 0 884 C0 592.28 0 300.56 0 0 Z " fill="#21468C" transform="translate(0,1755)"/>
<path d="M0 0 C1650 0 3300 0 5000 0 C5000 287.1 5000 574.2 5000 870 C3350 870 1700 870 0 870 C0 582.9 0 295.8 0 0 Z " fill="#AE1C27" transform="translate(0,0)"/>
</svg>
