<?xml version="1.0" encoding="UTF-8"?>
<svg version="1.1" xmlns="http://www.w3.org/2000/svg" width="5000" height="2638">
<path d="M0 0 C1650 0 3300 0 5000 0 C5000 870.54 5000 1741.08 5000 2638 C3350 2638 1700 2638 0 2638 C0 1767.46 0 896.92 0 0 Z " fill="#0038A4" transform="translate(0,0)"/>
<path d="M0 0 C1650 0 3300 0 5000 0 C5000 293.7 5000 587.4 5000 890 C3350 890 1700 890 0 890 C0 596.3 0 302.6 0 0 Z " fill="#FEFEFE" transform="translate(0,0)"/>
<path d="M0 0 C1650 0 3300 0 5000 0 C5000 285.12 5000 570.24 5000 864 C3350 864 1700 864 0 864 C0 578.88 0 293.76 0 0 Z " fill="#D52B1E" transform="translate(0,1774)"/>
</svg>
